<?xml version="1.0" encoding="utf-8" standalone="no"?>
<!DOCTYPE svg PUBLIC "-//W3C//DTD SVG 1.1//EN"
  "http://www.w3.org/Graphics/SVG/1.1/DTD/svg11.dtd">
<!-- Created with matplotlib (https://matplotlib.org/) -->
<svg height="357.457pt" version="1.1" viewBox="0 0 571.152194 357.457" width="571.152194pt" xmlns="http://www.w3.org/2000/svg" xmlns:xlink="http://www.w3.org/1999/xlink">
 <metadata>
  <rdf:RDF xmlns:cc="http://creativecommons.org/ns#" xmlns:dc="http://purl.org/dc/elements/1.1/" xmlns:rdf="http://www.w3.org/1999/02/22-rdf-syntax-ns#">
   <cc:Work>
    <dc:type rdf:resource="http://purl.org/dc/dcmitype/StillImage"/>
    <dc:date>2020-10-21T17:21:42.219489</dc:date>
    <dc:format>image/svg+xml</dc:format>
    <dc:creator>
     <cc:Agent>
      <dc:title>Matplotlib v3.3.2, https://matplotlib.org/</dc:title>
     </cc:Agent>
    </dc:creator>
   </cc:Work>
  </rdf:RDF>
 </metadata>
 <defs>
  <style type="text/css">*{stroke-linecap:butt;stroke-linejoin:round;}</style>
 </defs>
 <g id="figure_1">
  <g id="patch_1">
   <path d="M 0 357.457 
L 571.152194 357.457 
L 571.152194 0 
L 0 0 
z
" style="fill:none;"/>
  </g>
  <g id="axes_1">
   <g id="patch_2">
    <path d="M 35.76 313.361375 
L 392.88 313.361375 
L 392.88 47.249375 
L 35.76 47.249375 
z
" style="fill:none;"/>
   </g>
   <g id="matplotlib.axis_1">
    <g id="xtick_1">
     <g id="line2d_1">
      <defs>
       <path d="M 0 0 
L 0 3.5 
" id="mf265fb9b0f" style="stroke:#969696;stroke-width:0.4;"/>
      </defs>
      <g>
       <use style="fill:#969696;stroke:#969696;stroke-width:0.4;" x="325.733673" xlink:href="#mf265fb9b0f" y="313.361375"/>
      </g>
     </g>
     <g id="text_1">
      <!-- $\mathdefault{10^{4}}$ -->
      <g style="fill:#969696;" transform="translate(314.953673 330.41075)scale(0.14 -0.14)">
       <defs>
        <path d="M 35.890625 0 
L 26.515625 0 
L 26.515625 49.90625 
L 10.109375 49.90625 
L 10.109375 56.890625 
Q 18.703125 57.171875 22.890625 59.640625 
Q 27.09375 62.109375 29 70.3125 
L 35.890625 70.3125 
z
" id="HelveticaWorld-Regular-49"/>
        <path d="M 42.484375 34.1875 
Q 42.484375 48.296875 38.75 55.34375 
Q 35.015625 62.40625 27.78125 62.40625 
Q 20.703125 62.40625 16.890625 55.34375 
Q 13.09375 48.296875 13.09375 34.1875 
Q 13.09375 20.515625 16.84375 13.25 
Q 20.609375 6 27.78125 6 
Q 35.015625 6 38.75 13 
Q 42.484375 20.015625 42.484375 34.1875 
z
M 51.90625 34.1875 
Q 51.90625 16.890625 45.65625 7.484375 
Q 39.40625 -1.90625 27.78125 -1.90625 
Q 15.71875 -1.90625 9.71875 7.828125 
Q 3.71875 17.578125 3.71875 34.1875 
Q 3.71875 51.21875 9.859375 60.765625 
Q 16.015625 70.3125 27.78125 70.3125 
Q 39.40625 70.3125 45.65625 60.8125 
Q 51.90625 51.3125 51.90625 34.1875 
z
" id="HelveticaWorld-Regular-48"/>
        <path d="M 10.59375 24.703125 
L 33.203125 24.703125 
L 33.203125 56.59375 
L 33.015625 56.59375 
z
M 42 17.09375 
L 42 0 
L 33.203125 0 
L 33.203125 17.09375 
L 2.484375 17.09375 
L 2.484375 25.6875 
L 34.71875 70.3125 
L 42 70.3125 
L 42 24.703125 
L 52.296875 24.703125 
L 52.296875 17.09375 
z
" id="HelveticaWorld-Regular-52"/>
       </defs>
       <use transform="translate(0 0.173438)" xlink:href="#HelveticaWorld-Regular-49"/>
       <use transform="translate(55.615234 0.173438)" xlink:href="#HelveticaWorld-Regular-48"/>
       <use transform="translate(112.145664 36.78125)scale(0.7)" xlink:href="#HelveticaWorld-Regular-52"/>
      </g>
     </g>
    </g>
    <g id="xtick_2"/>
    <g id="xtick_3"/>
    <g id="xtick_4"/>
    <g id="xtick_5"/>
    <g id="xtick_6"/>
    <g id="xtick_7"/>
    <g id="xtick_8"/>
    <g id="xtick_9"/>
    <g id="text_2">
     <!-- num points -->
     <g style="fill:#969696;" transform="translate(180.392969 347.358562)scale(0.14 -0.14)">
      <defs>
       <path d="M 49.21875 0 
L 40.375 0 
L 40.375 32.171875 
Q 40.375 39.59375 37.78125 42.75 
Q 35.203125 45.90625 29.203125 45.90625 
Q 23.296875 45.90625 19.328125 41.40625 
Q 15.375 36.921875 15.375 28.515625 
L 15.375 0 
L 6.59375 0 
L 6.59375 52.296875 
L 14.890625 52.296875 
L 14.890625 44.921875 
L 15.09375 44.921875 
Q 21.296875 53.8125 30.90625 53.8125 
Q 39.796875 53.8125 44.5 49.09375 
Q 49.21875 44.390625 49.21875 35.59375 
z
" id="HelveticaWorld-Regular-110"/>
       <path d="M 6.109375 52.296875 
L 14.890625 52.296875 
L 14.890625 17.578125 
Q 14.890625 11.8125 17.5 8.953125 
Q 20.125 6.109375 25 6.109375 
Q 31.78125 6.109375 35.59375 10.90625 
Q 39.40625 15.71875 39.40625 23.484375 
L 39.40625 52.296875 
L 48.1875 52.296875 
L 48.1875 0 
L 39.890625 0 
L 39.890625 7.625 
L 39.703125 7.8125 
Q 34.71875 -1.515625 23.09375 -1.515625 
Q 15.578125 -1.515625 10.84375 2.578125 
Q 6.109375 6.6875 6.109375 14.703125 
z
" id="HelveticaWorld-Regular-117"/>
       <path d="M 6.59375 52.296875 
L 14.890625 52.296875 
L 14.890625 44.921875 
L 15.09375 44.921875 
Q 21 53.8125 30.90625 53.8125 
Q 40.71875 53.8125 44.828125 45.3125 
Q 48.578125 49.90625 52.09375 51.859375 
Q 55.609375 53.8125 60.796875 53.8125 
Q 67.578125 53.8125 72.28125 49.359375 
Q 77 44.921875 77 36.1875 
L 77 0 
L 68.21875 0 
L 68.21875 33.796875 
Q 68.21875 39.890625 65.921875 42.890625 
Q 63.625 45.90625 58.5 45.90625 
Q 53.328125 45.90625 49.75 41.703125 
Q 46.1875 37.5 46.1875 31.890625 
L 46.1875 0 
L 37.40625 0 
L 37.40625 36.1875 
Q 37.40625 40.71875 35.296875 43.3125 
Q 33.203125 45.90625 29.203125 45.90625 
Q 22.90625 45.90625 19.140625 41.21875 
Q 15.375 36.53125 15.375 28.515625 
L 15.375 0 
L 6.59375 0 
z
" id="HelveticaWorld-Regular-109"/>
       <path id="HelveticaWorld-Regular-32"/>
       <path d="M 14.984375 23.6875 
Q 14.984375 15.28125 19.078125 10.6875 
Q 23.1875 6.109375 29.296875 6.109375 
Q 35.984375 6.109375 39.6875 11.546875 
Q 43.40625 17 43.40625 26.3125 
Q 43.40625 36.53125 39.84375 41.21875 
Q 36.28125 45.90625 29.109375 45.90625 
Q 22.125 45.90625 18.546875 40.40625 
Q 14.984375 34.90625 14.984375 23.6875 
z
M 6.59375 52.296875 
L 14.890625 52.296875 
L 14.890625 44.921875 
L 15.09375 44.921875 
Q 20.703125 53.8125 30.71875 53.8125 
Q 40.828125 53.8125 46.65625 46.453125 
Q 52.484375 39.109375 52.484375 27.6875 
Q 52.484375 14.890625 46.53125 6.6875 
Q 40.578125 -1.515625 29.5 -1.515625 
Q 20.40625 -1.515625 15.578125 5.515625 
L 15.375 5.515625 
L 15.375 -20.703125 
L 6.59375 -20.703125 
z
" id="HelveticaWorld-Regular-112"/>
       <path d="M 12.703125 26.21875 
Q 12.703125 17.484375 16.65625 11.84375 
Q 20.609375 6.203125 27.875 6.203125 
Q 35.40625 6.203125 39.3125 12.109375 
Q 43.21875 18.015625 43.21875 26.21875 
Q 43.21875 34.515625 39.3125 40.296875 
Q 35.40625 46.09375 27.875 46.09375 
Q 20.90625 46.09375 16.796875 40.640625 
Q 12.703125 35.203125 12.703125 26.21875 
z
M 3.71875 26.21875 
Q 3.71875 37.890625 10.203125 45.84375 
Q 16.703125 53.8125 27.875 53.8125 
Q 39.3125 53.8125 45.75 45.75 
Q 52.203125 37.703125 52.203125 26.21875 
Q 52.203125 14.703125 45.796875 6.59375 
Q 39.40625 -1.515625 27.875 -1.515625 
Q 16.796875 -1.515625 10.25 6.34375 
Q 3.71875 14.203125 3.71875 26.21875 
z
" id="HelveticaWorld-Regular-111"/>
       <path d="M 6.59375 61.8125 
L 6.59375 71.78125 
L 15.375 71.78125 
L 15.375 61.8125 
z
M 15.375 0 
L 6.59375 0 
L 6.59375 52.296875 
L 15.375 52.296875 
z
" id="HelveticaWorld-Regular-105"/>
       <path d="M 17.1875 45.015625 
L 17.1875 10.984375 
Q 17.1875 8.984375 18.28125 7.9375 
Q 19.390625 6.890625 22.21875 6.890625 
L 25.59375 6.890625 
L 25.59375 0 
Q 20.796875 -0.6875 19 -0.6875 
Q 13.484375 -0.6875 10.9375 1.953125 
Q 8.40625 4.59375 8.40625 10.5 
L 8.40625 45.015625 
L 1.3125 45.015625 
L 1.3125 52.296875 
L 8.40625 52.296875 
L 8.40625 66.890625 
L 17.1875 66.890625 
L 17.1875 52.296875 
L 25.59375 52.296875 
L 25.59375 45.015625 
z
" id="HelveticaWorld-Regular-116"/>
       <path d="M 36.078125 37.40625 
Q 35.890625 42.09375 32.734375 44.140625 
Q 29.59375 46.1875 23.6875 46.1875 
Q 19.390625 46.1875 16.328125 44.28125 
Q 13.28125 42.390625 13.28125 38.8125 
Q 13.28125 35.984375 15.078125 34.640625 
Q 16.890625 33.296875 22.90625 31.78125 
L 31.59375 29.59375 
Q 39.5 27.59375 42.890625 24.484375 
Q 46.296875 21.390625 46.296875 15.828125 
Q 46.296875 8.109375 40.65625 3.296875 
Q 35.015625 -1.515625 25.59375 -1.515625 
Q 14.59375 -1.515625 8.953125 3.046875 
Q 3.328125 7.625 3.21875 16.796875 
L 11.71875 16.796875 
Q 11.921875 11.375 15.3125 8.734375 
Q 18.703125 6.109375 25.484375 6.109375 
Q 31 6.109375 34.25 8.296875 
Q 37.5 10.5 37.5 14.40625 
Q 37.5 17.1875 35.390625 18.84375 
Q 33.296875 20.515625 27.09375 21.921875 
L 16.890625 24.421875 
Q 10.6875 25.984375 7.734375 29.078125 
Q 4.78125 32.171875 4.78125 37.109375 
Q 4.78125 44.828125 10.296875 49.3125 
Q 15.828125 53.8125 24.703125 53.8125 
Q 34.1875 53.8125 39.234375 49.1875 
Q 44.28125 44.578125 44.578125 37.40625 
z
" id="HelveticaWorld-Regular-115"/>
      </defs>
      <use xlink:href="#HelveticaWorld-Regular-110"/>
      <use x="55.175781" xlink:href="#HelveticaWorld-Regular-117"/>
      <use x="109.960938" xlink:href="#HelveticaWorld-Regular-109"/>
      <use x="192.96875" xlink:href="#HelveticaWorld-Regular-32"/>
      <use x="217.382812" xlink:href="#HelveticaWorld-Regular-112"/>
      <use x="273.876953" xlink:href="#HelveticaWorld-Regular-111"/>
      <use x="329.785156" xlink:href="#HelveticaWorld-Regular-105"/>
      <use x="351.806641" xlink:href="#HelveticaWorld-Regular-110"/>
      <use x="406.982422" xlink:href="#HelveticaWorld-Regular-116"/>
      <use x="434.667969" xlink:href="#HelveticaWorld-Regular-115"/>
     </g>
    </g>
   </g>
   <g id="matplotlib.axis_2">
    <g id="ytick_1">
     <g id="line2d_2">
      <path clip-path="url(#pfe6a71106a)" d="M 35.76 218.405455 
L 392.88 218.405455 
" style="fill:none;stroke:#969696;stroke-linecap:square;stroke-width:0.3;"/>
     </g>
     <g id="line2d_3">
      <defs>
       <path d="M 0 0 
L -3.5 0 
" id="m9d2f0ac2bf" style="stroke:#969696;stroke-width:0.3;"/>
      </defs>
      <g>
       <use style="fill:#969696;stroke:#969696;stroke-width:0.3;" x="35.76" xlink:href="#m9d2f0ac2bf" y="218.405455"/>
      </g>
     </g>
     <g id="text_3">
      <!-- $\mathdefault{10^{0}}$ -->
      <g style="fill:#969696;" transform="translate(7.2 223.430143)scale(0.14 -0.14)">
       <use transform="translate(0 0.173438)" xlink:href="#HelveticaWorld-Regular-49"/>
       <use transform="translate(55.615234 0.173438)" xlink:href="#HelveticaWorld-Regular-48"/>
       <use transform="translate(112.145664 36.78125)scale(0.7)" xlink:href="#HelveticaWorld-Regular-48"/>
      </g>
     </g>
    </g>
    <g id="ytick_2">
     <g id="line2d_4">
      <path clip-path="url(#pfe6a71106a)" d="M 35.76 92.560527 
L 392.88 92.560527 
" style="fill:none;stroke:#969696;stroke-linecap:square;stroke-width:0.3;"/>
     </g>
     <g id="line2d_5">
      <g>
       <use style="fill:#969696;stroke:#969696;stroke-width:0.3;" x="35.76" xlink:href="#m9d2f0ac2bf" y="92.560527"/>
      </g>
     </g>
     <g id="text_4">
      <!-- $\mathdefault{10^{1}}$ -->
      <g style="fill:#969696;" transform="translate(7.2 97.585214)scale(0.14 -0.14)">
       <use transform="translate(0 0.173438)" xlink:href="#HelveticaWorld-Regular-49"/>
       <use transform="translate(55.615234 0.173438)" xlink:href="#HelveticaWorld-Regular-48"/>
       <use transform="translate(112.145664 36.78125)scale(0.7)" xlink:href="#HelveticaWorld-Regular-49"/>
      </g>
     </g>
    </g>
    <g id="ytick_3"/>
    <g id="ytick_4"/>
    <g id="ytick_5"/>
    <g id="ytick_6"/>
    <g id="ytick_7"/>
    <g id="ytick_8"/>
    <g id="ytick_9"/>
    <g id="ytick_10"/>
    <g id="ytick_11"/>
    <g id="ytick_12"/>
    <g id="ytick_13"/>
    <g id="ytick_14"/>
    <g id="ytick_15"/>
    <g id="ytick_16"/>
    <g id="ytick_17"/>
    <g id="ytick_18"/>
    <g id="ytick_19"/>
   </g>
   <g id="line2d_6">
    <path clip-path="url(#pfe6a71106a)" d="M 36.201532 272.508243 
L 70.634213 275.629022 
L 100.662023 247.729271 
L 131.007035 234.638068 
L 158.930469 237.800823 
L 186.634504 211.890632 
L 212.657886 201.694885 
L 236.372544 199.284617 
L 259.074479 180.474133 
L 280.936176 169.314497 
L 300.442527 161.981555 
L 319.685007 154.65565 
L 337.594379 132.163363 
L 355.73458 132.16981 
L 371.921461 116.899236 
" style="fill:none;stroke:#ff7f0e;stroke-linecap:square;stroke-width:1.5;"/>
   </g>
   <g id="line2d_7">
    <path clip-path="url(#pfe6a71106a)" d="M 35.76 309.056297 
L 69.595087 313.361375 
L 96.990809 303.920684 
L 129.482447 290.700898 
L 157.029752 280.537253 
L 182.840256 267.37808 
L 207.244146 259.10151 
L 229.545802 248.763187 
L 251.151984 237.510202 
L 271.063861 230.290531 
L 290.395907 221.532538 
L 307.356674 214.863846 
L 324.646649 206.742846 
L 339.863755 202.23768 
L 353.904953 193.116933 
" style="fill:none;stroke:#d62728;stroke-linecap:square;stroke-width:1.5;"/>
   </g>
   <g id="line2d_8">
    <path clip-path="url(#pfe6a71106a)" d="M 44.025131 217.171089 
L 90.025801 200.179813 
L 120.9392 187.087911 
L 168.970056 168.135785 
L 189.59047 160.722048 
L 218.806526 142.112465 
L 246.21461 138.208557 
L 278.930096 115.662321 
L 294.335917 114.121891 
L 302.282136 107.549174 
L 331.073299 88.903859 
L 357.450951 73.880337 
L 362.521153 56.602645 
L 387.536756 47.249375 
L 392.88 48.00784 
" style="fill:none;stroke:#9467bd;stroke-linecap:square;stroke-width:1.5;"/>
   </g>
   <g id="text_5">
    <!-- CGAL 5.1, pygalmesh 0.8.0 -->
    <g style="fill:#ff7f0e;" transform="translate(394.169382 120.516268)scale(0.14 -0.14)">
     <defs>
      <path d="M 58.015625 50.203125 
Q 56.390625 57.515625 51.234375 61.296875 
Q 46.09375 65.09375 37.890625 65.09375 
Q 27.296875 65.09375 20.84375 57.390625 
Q 14.40625 49.703125 14.40625 36.625 
Q 14.40625 21.484375 20.5 14.078125 
Q 26.609375 6.6875 38.1875 6.6875 
Q 45.796875 6.6875 51.28125 11.734375 
Q 56.78125 16.796875 58.6875 26.421875 
L 68.109375 26.421875 
Q 66.21875 12.59375 57.625 5.34375 
Q 49.03125 -1.90625 36.71875 -1.90625 
Q 22.015625 -1.90625 13.203125 8.203125 
Q 4.390625 18.3125 4.390625 36.28125 
Q 4.390625 53.609375 13.59375 63.640625 
Q 22.796875 73.6875 37.890625 73.6875 
Q 50.390625 73.6875 58.15625 67.234375 
Q 65.921875 60.796875 67.390625 50.203125 
z
" id="HelveticaWorld-Regular-67"/>
      <path d="M 38.484375 38.375 
L 70.015625 38.375 
L 70.015625 0 
L 63.71875 0 
L 61.375 9.28125 
Q 56.78125 3.421875 50.578125 0.75 
Q 44.390625 -1.90625 37.703125 -1.90625 
Q 26.90625 -1.90625 19.65625 2.796875 
Q 12.40625 7.515625 8.390625 15.8125 
Q 4.390625 24.125 4.390625 36.53125 
Q 4.390625 52 13.59375 62.84375 
Q 22.796875 73.6875 38.375 73.6875 
Q 50 73.6875 58.6875 67.1875 
Q 67.390625 60.6875 68.796875 50 
L 59.421875 50 
Q 57.71875 57.078125 52.203125 61.078125 
Q 46.6875 65.09375 37.890625 65.09375 
Q 27.296875 65.09375 20.84375 57.109375 
Q 14.40625 49.125 14.40625 35.984375 
Q 14.40625 20.703125 20.796875 13.546875 
Q 27.203125 6.390625 38.28125 6.390625 
Q 45.515625 6.390625 50.515625 9.25 
Q 55.515625 12.109375 58.203125 17.015625 
Q 60.890625 21.921875 60.890625 30.078125 
L 38.484375 30.078125 
z
" id="HelveticaWorld-Regular-71"/>
      <path d="M 44 29.5 
L 33.40625 61.078125 
L 33.203125 61.078125 
L 21.6875 29.5 
z
M 18.703125 20.90625 
L 11.1875 0 
L 1.21875 0 
L 28.21875 71.78125 
L 39.203125 71.78125 
L 65.1875 0 
L 54.59375 0 
L 47.515625 20.90625 
z
" id="HelveticaWorld-Regular-65"/>
      <path d="M 17.671875 8.59375 
L 54.203125 8.59375 
L 54.203125 0 
L 8.109375 0 
L 8.109375 71.78125 
L 17.671875 71.78125 
z
" id="HelveticaWorld-Regular-76"/>
      <path d="M 14.703125 40.921875 
Q 20.515625 45.3125 28.328125 45.3125 
Q 37.796875 45.3125 44.609375 39.015625 
Q 51.421875 32.71875 51.421875 22.796875 
Q 51.421875 12.015625 44.84375 5 
Q 38.28125 -2 26.421875 -2 
Q 16.109375 -2 10.15625 3.046875 
Q 4.203125 8.109375 3.21875 17.390625 
L 12.3125 17.390625 
Q 12.984375 11.71875 16.75 8.71875 
Q 20.515625 5.71875 27.203125 5.71875 
Q 33.6875 5.71875 37.84375 10.203125 
Q 42 14.703125 42 21.6875 
Q 42 28.8125 37.640625 33.109375 
Q 33.296875 37.40625 26.421875 37.40625 
Q 18.609375 37.40625 13.375 30.71875 
L 5.8125 31.109375 
L 11.078125 68.703125 
L 47.515625 68.703125 
L 47.515625 60.203125 
L 17.671875 60.203125 
z
" id="HelveticaWorld-Regular-53"/>
      <path d="M 19.09375 0 
L 8.6875 0 
L 8.6875 10.59375 
L 19.09375 10.59375 
z
" id="HelveticaWorld-Regular-46"/>
      <path d="M 8.6875 10.59375 
L 19.09375 10.59375 
L 19.09375 0.78125 
Q 19.09375 -6.640625 16.015625 -10.390625 
Q 12.9375 -14.15625 8.6875 -14.703125 
L 8.6875 -10.109375 
Q 14.015625 -9.421875 14.015625 0 
L 8.6875 0 
z
" id="HelveticaWorld-Regular-44"/>
      <path d="M 39.015625 52.296875 
L 48.578125 52.296875 
L 29.890625 0.984375 
Q 29.390625 -0.390625 28.90625 -1.609375 
Q 24.65625 -12.9375 21.578125 -17.15625 
Q 18.5 -21.390625 11.625 -21.390625 
Q 8.015625 -21.390625 5.71875 -20.609375 
L 5.71875 -12.59375 
Q 8.203125 -13.484375 11.1875 -13.484375 
Q 14.40625 -13.484375 15.890625 -11.453125 
Q 17.390625 -9.421875 20.3125 -1.515625 
L 0.875 52.296875 
L 10.796875 52.296875 
L 24.8125 9.71875 
L 25 9.71875 
z
" id="HelveticaWorld-Regular-121"/>
      <path d="M 12.984375 26.3125 
Q 12.984375 16.703125 16.796875 11.40625 
Q 20.609375 6.109375 27.09375 6.109375 
Q 33.40625 6.109375 37.40625 10.6875 
Q 41.40625 15.28125 41.40625 23.6875 
Q 41.40625 34.71875 37.90625 40.3125 
Q 34.421875 45.90625 27.296875 45.90625 
Q 20.125 45.90625 16.546875 41.140625 
Q 12.984375 36.375 12.984375 26.3125 
z
M 49.8125 2.984375 
Q 49.8125 -9.625 43.75 -15.8125 
Q 37.703125 -22.015625 25.484375 -22.015625 
Q 16.703125 -22.015625 11.5 -17.96875 
Q 6.296875 -13.921875 5.515625 -6.390625 
L 14.3125 -6.390625 
Q 14.984375 -10.203125 17.84375 -12.453125 
Q 20.703125 -14.703125 26.125 -14.703125 
Q 33.5 -14.703125 37.25 -10.734375 
Q 41.015625 -6.78125 41.015625 2.09375 
L 41.015625 5.8125 
L 40.828125 5.8125 
Q 35.890625 -1.515625 26.90625 -1.515625 
Q 15.71875 -1.515625 9.8125 6.734375 
Q 3.90625 14.984375 3.90625 27.6875 
Q 3.90625 39.3125 9.859375 46.5625 
Q 15.828125 53.8125 25.6875 53.8125 
Q 35.59375 53.8125 41.3125 44.921875 
L 41.5 44.921875 
L 41.5 52.296875 
L 49.8125 52.296875 
z
" id="HelveticaWorld-Regular-103"/>
      <path d="M 38.375 26.703125 
Q 37.40625 25.6875 34.546875 25.046875 
Q 31.6875 24.421875 23.875 23.390625 
Q 18.109375 22.703125 15.40625 20.546875 
Q 12.703125 18.40625 12.703125 14.890625 
Q 12.703125 10.59375 14.984375 8.203125 
Q 17.28125 5.8125 22.3125 5.8125 
Q 28.609375 5.8125 33.484375 9.390625 
Q 38.375 12.984375 38.375 18.109375 
z
M 6.203125 36.375 
Q 6.5 45.21875 11.9375 49.515625 
Q 17.390625 53.8125 27.78125 53.8125 
Q 36.078125 53.8125 41.6875 50.046875 
Q 47.3125 46.296875 47.3125 39.203125 
L 47.3125 9.078125 
Q 47.3125 6 50.09375 6 
Q 51.21875 6 52.984375 6.390625 
L 52.984375 0 
Q 50.59375 -0.984375 48 -0.984375 
Q 43.5 -0.984375 41.296875 0.9375 
Q 39.109375 2.875 39.015625 6.984375 
Q 31.5 -1.515625 20.125 -1.515625 
Q 12.703125 -1.515625 8.203125 2.6875 
Q 3.71875 6.890625 3.71875 13.625 
Q 3.71875 20.515625 7.625 24.75 
Q 11.53125 29 19 29.890625 
L 34.515625 31.78125 
Q 38.71875 32.421875 38.71875 37.984375 
Q 38.71875 42.09375 35.671875 44.28125 
Q 32.625 46.484375 26.421875 46.484375 
Q 20.90625 46.484375 17.9375 44.046875 
Q 14.984375 41.609375 14.40625 36.375 
z
" id="HelveticaWorld-Regular-97"/>
      <path d="M 15.375 0 
L 6.59375 0 
L 6.59375 71.78125 
L 15.375 71.78125 
z
" id="HelveticaWorld-Regular-108"/>
      <path d="M 42.484375 30.328125 
Q 41.796875 38.8125 37.984375 42.359375 
Q 34.1875 45.90625 27.875 45.90625 
Q 21.484375 45.90625 17.546875 41.40625 
Q 13.625 36.921875 13.375 30.328125 
z
M 50.875 16.40625 
Q 49.421875 8.296875 42.921875 2.984375 
Q 37.203125 -1.515625 27.875 -1.609375 
Q 16.890625 -1.515625 10.4375 5.59375 
Q 4 12.703125 4 24.703125 
Q 4 38.484375 10.640625 46.140625 
Q 17.28125 53.8125 29.109375 53.8125 
Q 39.703125 53.8125 45.65625 45.890625 
Q 51.609375 37.984375 51.609375 23.296875 
L 13.375 23.296875 
Q 13.375 15.09375 17.1875 10.59375 
Q 21 6.109375 28.609375 6.109375 
Q 33.984375 6.109375 37.84375 9.34375 
Q 41.703125 12.59375 42.09375 16.40625 
z
" id="HelveticaWorld-Regular-101"/>
      <path d="M 49.21875 0 
L 40.375 0 
L 40.375 34.1875 
Q 40.375 40.484375 37.9375 43.1875 
Q 35.5 45.90625 29.984375 45.90625 
Q 23.1875 45.90625 19.28125 41.5 
Q 15.375 37.109375 15.375 28.515625 
L 15.375 0 
L 6.59375 0 
L 6.59375 71.78125 
L 15.375 71.78125 
L 15.375 45.3125 
L 15.578125 45.3125 
Q 21.578125 53.8125 30.90625 53.8125 
Q 39.5 53.8125 44.359375 49.3125 
Q 49.21875 44.828125 49.21875 35.59375 
z
" id="HelveticaWorld-Regular-104"/>
      <path d="M 27.59375 40.578125 
Q 33.015625 40.578125 36.546875 43.671875 
Q 40.09375 46.78125 40.09375 51.90625 
Q 40.09375 56.5 36.6875 59.453125 
Q 33.296875 62.40625 27 62.40625 
Q 21.390625 62.40625 18.328125 59.296875 
Q 15.28125 56.203125 15.28125 51.421875 
Q 15.28125 46.296875 19.09375 43.4375 
Q 22.90625 40.578125 27.59375 40.578125 
z
M 27.6875 33.015625 
Q 20.90625 33.015625 17.046875 29.25 
Q 13.1875 25.484375 13.1875 20.015625 
Q 13.1875 13.71875 17.09375 9.859375 
Q 21 6 28.21875 6 
Q 34.625 6 38.453125 9.859375 
Q 42.28125 13.71875 42.28125 20.125 
Q 42.28125 25.59375 38.453125 29.296875 
Q 34.625 33.015625 27.6875 33.015625 
z
M 49.21875 52.203125 
Q 49.21875 41.609375 40.1875 37.40625 
Q 46.390625 34.625 49.046875 30.046875 
Q 51.703125 25.484375 51.703125 20.3125 
Q 51.703125 10.296875 45.25 4.1875 
Q 38.8125 -1.90625 27.875 -1.90625 
Q 18.3125 -1.90625 11.0625 3.34375 
Q 3.8125 8.59375 3.8125 20.40625 
Q 3.8125 32.328125 15.71875 37.3125 
Q 6.203125 41.109375 6.203125 50.984375 
Q 6.203125 59.28125 11.84375 64.796875 
Q 17.484375 70.3125 27.484375 70.3125 
Q 37.5 70.3125 43.359375 65.109375 
Q 49.21875 59.90625 49.21875 52.203125 
z
" id="HelveticaWorld-Regular-56"/>
     </defs>
     <use xlink:href="#HelveticaWorld-Regular-67"/>
     <use x="72.314453" xlink:href="#HelveticaWorld-Regular-71"/>
     <use x="149.414062" xlink:href="#HelveticaWorld-Regular-65"/>
     <use x="216.113281" xlink:href="#HelveticaWorld-Regular-76"/>
     <use x="271.728516" xlink:href="#HelveticaWorld-Regular-32"/>
     <use x="296.142578" xlink:href="#HelveticaWorld-Regular-53"/>
     <use x="351.757812" xlink:href="#HelveticaWorld-Regular-46"/>
     <use x="379.541016" xlink:href="#HelveticaWorld-Regular-49"/>
     <use x="435.15625" xlink:href="#HelveticaWorld-Regular-44"/>
     <use x="462.939453" xlink:href="#HelveticaWorld-Regular-32"/>
     <use x="487.353516" xlink:href="#HelveticaWorld-Regular-112"/>
     <use x="541.847656" xlink:href="#HelveticaWorld-Regular-121"/>
     <use x="589.457031" xlink:href="#HelveticaWorld-Regular-103"/>
     <use x="645.365234" xlink:href="#HelveticaWorld-Regular-97"/>
     <use x="700.296875" xlink:href="#HelveticaWorld-Regular-108"/>
     <use x="722.318359" xlink:href="#HelveticaWorld-Regular-109"/>
     <use x="805.326172" xlink:href="#HelveticaWorld-Regular-101"/>
     <use x="860.746094" xlink:href="#HelveticaWorld-Regular-115"/>
     <use x="910.746094" xlink:href="#HelveticaWorld-Regular-104"/>
     <use x="965.921875" xlink:href="#HelveticaWorld-Regular-32"/>
     <use x="990.335938" xlink:href="#HelveticaWorld-Regular-48"/>
     <use x="1045.951172" xlink:href="#HelveticaWorld-Regular-46"/>
     <use x="1073.734375" xlink:href="#HelveticaWorld-Regular-56"/>
     <use x="1129.349609" xlink:href="#HelveticaWorld-Regular-46"/>
     <use x="1157.132812" xlink:href="#HelveticaWorld-Regular-48"/>
    </g>
   </g>
   <g id="text_6">
    <!-- Gmsh 4.7.0, pygmsh 7.0.4 -->
    <g style="fill:#d62728;" transform="translate(394.169382 196.733964)scale(0.14 -0.14)">
     <defs>
      <path d="M 3.71875 68.796875 
L 52.296875 68.796875 
L 52.296875 61.078125 
Q 42.28125 50.875 33.984375 33.484375 
Q 25.6875 16.109375 23.390625 0 
L 13.71875 0 
Q 15.1875 13.28125 23.4375 30.53125 
Q 31.6875 47.796875 42.390625 60.203125 
L 3.71875 60.203125 
z
" id="HelveticaWorld-Regular-55"/>
     </defs>
     <use xlink:href="#HelveticaWorld-Regular-71"/>
     <use x="77.099609" xlink:href="#HelveticaWorld-Regular-109"/>
     <use x="160.107422" xlink:href="#HelveticaWorld-Regular-115"/>
     <use x="210.107422" xlink:href="#HelveticaWorld-Regular-104"/>
     <use x="265.283203" xlink:href="#HelveticaWorld-Regular-32"/>
     <use x="289.697266" xlink:href="#HelveticaWorld-Regular-52"/>
     <use x="345.3125" xlink:href="#HelveticaWorld-Regular-46"/>
     <use x="373.095703" xlink:href="#HelveticaWorld-Regular-55"/>
     <use x="428.710938" xlink:href="#HelveticaWorld-Regular-46"/>
     <use x="456.494141" xlink:href="#HelveticaWorld-Regular-48"/>
     <use x="512.109375" xlink:href="#HelveticaWorld-Regular-44"/>
     <use x="539.892578" xlink:href="#HelveticaWorld-Regular-32"/>
     <use x="564.306641" xlink:href="#HelveticaWorld-Regular-112"/>
     <use x="618.800781" xlink:href="#HelveticaWorld-Regular-121"/>
     <use x="666.410156" xlink:href="#HelveticaWorld-Regular-103"/>
     <use x="722.318359" xlink:href="#HelveticaWorld-Regular-109"/>
     <use x="805.326172" xlink:href="#HelveticaWorld-Regular-115"/>
     <use x="855.326172" xlink:href="#HelveticaWorld-Regular-104"/>
     <use x="910.501953" xlink:href="#HelveticaWorld-Regular-32"/>
     <use x="934.916016" xlink:href="#HelveticaWorld-Regular-55"/>
     <use x="990.53125" xlink:href="#HelveticaWorld-Regular-46"/>
     <use x="1018.314453" xlink:href="#HelveticaWorld-Regular-48"/>
     <use x="1073.929688" xlink:href="#HelveticaWorld-Regular-46"/>
     <use x="1101.712891" xlink:href="#HelveticaWorld-Regular-52"/>
    </g>
   </g>
   <g id="text_7">
    <!-- SeismicMesh 3.0.5 -->
    <g style="fill:#9467bd;" transform="translate(394.169382 51.583309)scale(0.14 -0.14)">
     <defs>
      <path d="M 50.390625 50.78125 
Q 50.09375 57.625 45.28125 61.5 
Q 40.484375 65.375 32.625 65.375 
Q 24.703125 65.375 20.453125 62.125 
Q 16.21875 58.890625 16.21875 52.78125 
Q 16.21875 49.515625 18.0625 47.171875 
Q 19.921875 44.828125 24.703125 43.703125 
L 45.21875 39.015625 
Q 53.515625 37.203125 57.515625 32.140625 
Q 61.53125 27.09375 61.53125 19.828125 
Q 61.53125 9.1875 53.71875 3.640625 
Q 45.90625 -1.90625 33.40625 -1.90625 
Q 23.875 -1.90625 18.375 0.53125 
Q 12.890625 2.984375 8.640625 8.296875 
Q 4.390625 13.625 4.390625 23.1875 
L 13.484375 23.1875 
Q 13.484375 15.1875 18.796875 10.78125 
Q 24.125 6.390625 33.296875 6.390625 
Q 42.1875 6.390625 47.140625 9.546875 
Q 52.09375 12.703125 52.09375 18.5 
Q 52.09375 23.78125 49.140625 26.390625 
Q 46.1875 29 37.59375 31 
L 22.125 34.625 
Q 14.40625 36.375 10.59375 40.75 
Q 6.78125 45.125 6.78125 51.515625 
Q 6.78125 61.1875 13.296875 67.4375 
Q 19.828125 73.6875 31.5 73.6875 
Q 44.671875 73.6875 51.828125 68.1875 
Q 58.984375 62.703125 59.515625 50.78125 
z
" id="HelveticaWorld-Regular-83"/>
      <path d="M 39.59375 34.71875 
Q 37.703125 45.90625 27.203125 45.90625 
Q 20.703125 45.90625 16.75 40.703125 
Q 12.796875 35.5 12.796875 26.21875 
Q 12.796875 16.109375 16.453125 11.109375 
Q 20.125 6.109375 27.09375 6.109375 
Q 31.78125 6.109375 35.203125 9.546875 
Q 38.625 12.984375 39.59375 18.5 
L 48.09375 18.5 
Q 46.78125 8.796875 41.234375 3.640625 
Q 35.6875 -1.515625 26.90625 -1.515625 
Q 16.609375 -1.515625 10.015625 5.53125 
Q 3.421875 12.59375 3.421875 24.703125 
Q 3.421875 37.984375 10.015625 45.890625 
Q 16.609375 53.8125 28.515625 53.8125 
Q 37.203125 53.8125 42.359375 48.609375 
Q 47.515625 43.40625 48.09375 34.71875 
z
" id="HelveticaWorld-Regular-99"/>
      <path d="M 67.484375 0 
L 67.484375 42.390625 
Q 67.484375 43.21875 67.578125 50.515625 
Q 67.671875 57.8125 67.671875 60.296875 
L 67.390625 60.296875 
L 47.3125 0 
L 37.703125 0 
L 17.578125 60.203125 
L 17.28125 60.203125 
Q 17.28125 56.59375 17.375 49.90625 
Q 17.484375 43.21875 17.484375 42.390625 
L 17.484375 0 
L 8.109375 0 
L 8.109375 71.78125 
L 21.96875 71.78125 
L 42.390625 11.078125 
L 42.671875 11.078125 
L 62.984375 71.78125 
L 76.90625 71.78125 
L 76.90625 0 
z
" id="HelveticaWorld-Regular-77"/>
      <path d="M 22.40625 39.984375 
Q 24.609375 39.796875 27 39.796875 
Q 33.203125 39.796875 36.78125 42.65625 
Q 40.375 45.515625 40.375 51.3125 
Q 40.375 56 37.03125 59.203125 
Q 33.6875 62.40625 27.390625 62.40625 
Q 20.40625 62.40625 17.15625 58.296875 
Q 13.921875 54.203125 13.71875 47.3125 
L 5.078125 47.3125 
Q 5.078125 58.296875 10.84375 64.296875 
Q 16.609375 70.3125 27.78125 70.3125 
Q 37.703125 70.3125 43.609375 65.203125 
Q 49.515625 60.109375 49.515625 51.8125 
Q 49.515625 41.109375 40.484375 37.3125 
L 40.484375 37.109375 
Q 52.203125 33.109375 52.203125 20.703125 
Q 52.203125 10.796875 45.609375 4.4375 
Q 39.015625 -1.90625 26.90625 -1.90625 
Q 17 -1.90625 10.59375 3.296875 
Q 4.203125 8.5 3.421875 21.484375 
L 12.5 21.484375 
Q 12.703125 13.375 16.5 9.6875 
Q 20.3125 6 27.484375 6 
Q 34.421875 6 38.625 9.859375 
Q 42.828125 13.71875 42.828125 19.578125 
Q 42.828125 25.984375 38.8125 29.25 
Q 34.8125 32.515625 26.421875 32.515625 
Q 24.421875 32.515625 22.40625 32.421875 
z
" id="HelveticaWorld-Regular-51"/>
     </defs>
     <use xlink:href="#HelveticaWorld-Regular-83"/>
     <use x="66.210938" xlink:href="#HelveticaWorld-Regular-101"/>
     <use x="121.630859" xlink:href="#HelveticaWorld-Regular-105"/>
     <use x="143.652344" xlink:href="#HelveticaWorld-Regular-115"/>
     <use x="193.652344" xlink:href="#HelveticaWorld-Regular-109"/>
     <use x="276.660156" xlink:href="#HelveticaWorld-Regular-105"/>
     <use x="298.681641" xlink:href="#HelveticaWorld-Regular-99"/>
     <use x="349.951172" xlink:href="#HelveticaWorld-Regular-77"/>
     <use x="434.960938" xlink:href="#HelveticaWorld-Regular-101"/>
     <use x="490.380859" xlink:href="#HelveticaWorld-Regular-115"/>
     <use x="540.380859" xlink:href="#HelveticaWorld-Regular-104"/>
     <use x="595.556641" xlink:href="#HelveticaWorld-Regular-32"/>
     <use x="619.970703" xlink:href="#HelveticaWorld-Regular-51"/>
     <use x="675.585938" xlink:href="#HelveticaWorld-Regular-46"/>
     <use x="703.369141" xlink:href="#HelveticaWorld-Regular-48"/>
     <use x="758.984375" xlink:href="#HelveticaWorld-Regular-46"/>
     <use x="786.767578" xlink:href="#HelveticaWorld-Regular-53"/>
    </g>
   </g>
   <g id="text_8">
    <!-- mesh creation times [s] -->
    <g style="fill:#969696;" transform="translate(143.301719 17.249375)scale(0.14 -0.14)">
     <defs>
      <path d="M 15.375 0 
L 6.59375 0 
L 6.59375 52.296875 
L 14.890625 52.296875 
L 14.890625 43.609375 
L 15.09375 43.609375 
Q 20.796875 53.8125 29.78125 53.8125 
Q 31.203125 53.8125 32.078125 53.515625 
L 32.078125 44.390625 
L 28.8125 44.390625 
Q 22.90625 44.390625 19.140625 40.375 
Q 15.375 36.375 15.375 30.421875 
z
" id="HelveticaWorld-Regular-114"/>
      <path d="M 14.203125 -12.5 
L 25 -12.5 
L 25 -19.578125 
L 6.296875 -19.578125 
L 6.296875 72.21875 
L 25 72.21875 
L 25 65.09375 
L 14.203125 65.09375 
z
" id="HelveticaWorld-Regular-91"/>
      <path d="M 13.625 65.09375 
L 2.78125 65.09375 
L 2.78125 72.21875 
L 21.484375 72.21875 
L 21.484375 -19.578125 
L 2.78125 -19.578125 
L 2.78125 -12.5 
L 13.625 -12.5 
z
" id="HelveticaWorld-Regular-93"/>
     </defs>
     <use xlink:href="#HelveticaWorld-Regular-109"/>
     <use x="83.007812" xlink:href="#HelveticaWorld-Regular-101"/>
     <use x="138.427734" xlink:href="#HelveticaWorld-Regular-115"/>
     <use x="188.427734" xlink:href="#HelveticaWorld-Regular-104"/>
     <use x="243.603516" xlink:href="#HelveticaWorld-Regular-32"/>
     <use x="268.017578" xlink:href="#HelveticaWorld-Regular-99"/>
     <use x="319.287109" xlink:href="#HelveticaWorld-Regular-114"/>
     <use x="350.855469" xlink:href="#HelveticaWorld-Regular-101"/>
     <use x="406.275391" xlink:href="#HelveticaWorld-Regular-97"/>
     <use x="461.207031" xlink:href="#HelveticaWorld-Regular-116"/>
     <use x="488.892578" xlink:href="#HelveticaWorld-Regular-105"/>
     <use x="510.914062" xlink:href="#HelveticaWorld-Regular-111"/>
     <use x="566.822266" xlink:href="#HelveticaWorld-Regular-110"/>
     <use x="621.998047" xlink:href="#HelveticaWorld-Regular-32"/>
     <use x="646.412109" xlink:href="#HelveticaWorld-Regular-116"/>
     <use x="674.097656" xlink:href="#HelveticaWorld-Regular-105"/>
     <use x="696.119141" xlink:href="#HelveticaWorld-Regular-109"/>
     <use x="779.126953" xlink:href="#HelveticaWorld-Regular-101"/>
     <use x="834.546875" xlink:href="#HelveticaWorld-Regular-115"/>
     <use x="884.546875" xlink:href="#HelveticaWorld-Regular-32"/>
     <use x="908.960938" xlink:href="#HelveticaWorld-Regular-91"/>
     <use x="936.744141" xlink:href="#HelveticaWorld-Regular-115"/>
     <use x="986.744141" xlink:href="#HelveticaWorld-Regular-93"/>
    </g>
   </g>
  </g>
 </g>
 <defs>
  <clipPath id="pfe6a71106a">
   <rect height="266.112" width="357.12" x="35.76" y="47.249375"/>
  </clipPath>
 </defs>
</svg>
