<svg height="476.892" viewBox="0 0 568.441 357.669" width="757.922" xmlns="http://www.w3.org/2000/svg" xmlns:xlink="http://www.w3.org/1999/xlink"><defs><style>*{stroke-linecap:butt;stroke-linejoin:round}</style></defs><g id="figure_1"><path d="M0 357.67h568.441V0H0z" fill="none" id="patch_1"/><g id="axes_1"><path d="M33.66 313.574h357.12V47.462H33.66z" fill="none" id="patch_2"/><g id="matplotlib.axis_1"><g id="xtick_1"><g id="line2d_1"><defs><path d="M0 0v3.5" id="mcb2984e835" stroke="#969696" stroke-width=".4"/></defs><use x="110.317" xlink:href="#mcb2984e835" y="313.574" fill="#969696" stroke="#969696" stroke-width=".4"/></g><g transform="matrix(.14 0 0 -.14 99.537 330.623)" fill="#969696" id="text_1"><defs><path d="M35.89 0h-9.374v49.906H10.109v6.985q8.594.28 12.782 2.75Q27.094 62.109 29 70.313h6.89z" id="HelveticaWorld-Regular-49"/><path d="M42.484 34.188q0 14.109-3.734 21.156-3.734 7.062-10.969 7.062-7.078 0-10.89-7.062-3.797-7.047-3.797-21.157 0-13.671 3.75-20.937Q20.609 6 27.78 6q7.235 0 10.969 7 3.734 7.016 3.734 21.188zm9.422 0q0-17.297-6.25-26.704-6.25-9.39-17.875-9.39-12.062 0-18.062 9.734-6 9.75-6 26.36 0 17.03 6.14 26.578 6.157 9.547 17.922 9.547 11.625 0 17.875-9.5t6.25-26.626z" id="HelveticaWorld-Regular-48"/><path d="M22.406 39.984q2.203-.187 4.594-.187 6.203 0 9.781 2.86 3.594 2.859 3.594 8.656 0 4.687-3.344 7.89-3.343 3.203-9.64 3.203-6.985 0-10.235-4.11-3.234-4.093-3.437-10.983h-8.64q0 10.984 5.765 16.984 5.765 6.016 16.937 6.016 9.922 0 15.828-5.11 5.907-5.094 5.907-13.39 0-10.704-9.032-14.5v-.204q11.72-4 11.72-16.406 0-9.906-6.595-16.265-6.593-6.344-18.703-6.344-9.906 0-16.312 5.203Q4.204 8.5 3.422 21.484H12.5q.203-8.109 4-11.797Q20.313 6 27.484 6q6.938 0 11.141 3.86 4.203 3.859 4.203 9.718 0 6.406-4.016 9.672-4 3.266-12.39 3.266-2 0-4.016-.094z" id="HelveticaWorld-Regular-51"/></defs><use transform="translate(0 .173)" xlink:href="#HelveticaWorld-Regular-49"/><use transform="translate(55.615 .173)" xlink:href="#HelveticaWorld-Regular-48"/><use transform="matrix(.7 0 0 .7 112.146 36.781)" xlink:href="#HelveticaWorld-Regular-51"/></g></g><g id="xtick_2"><use x="268.227" xlink:href="#mcb2984e835" y="313.574" fill="#969696" stroke="#969696" stroke-width=".4" id="line2d_2"/><g transform="matrix(.14 0 0 -.14 257.447 330.623)" fill="#969696" id="text_2"><defs><path d="M10.594 24.703h22.61v31.89h-.188zM42 17.093V0h-8.797v17.094H2.484v8.593L34.72 70.314H42v-45.61h10.297v-7.61z" id="HelveticaWorld-Regular-52"/></defs><use transform="translate(0 .173)" xlink:href="#HelveticaWorld-Regular-49"/><use transform="translate(55.615 .173)" xlink:href="#HelveticaWorld-Regular-48"/><use transform="matrix(.7 0 0 .7 112.146 36.781)" xlink:href="#HelveticaWorld-Regular-52"/></g></g><g transform="matrix(.14 0 0 -.14 178.293 347.57)" fill="#969696" id="text_3"><defs><path d="M49.219 0h-8.844v32.172q0 7.422-2.594 10.578-2.578 3.156-8.578 3.156-5.906 0-9.875-4.5-3.953-4.484-3.953-12.89V0H6.594v52.297h8.297v-7.375h.203q6.203 8.89 15.812 8.89 8.89 0 13.594-4.718 4.719-4.703 4.719-13.5z" id="HelveticaWorld-Regular-110"/><path d="M6.11 52.297h8.78V17.578q0-5.765 2.61-8.625Q20.125 6.11 25 6.11q6.781 0 10.594 4.797 3.812 4.813 3.812 12.578v28.813h8.782V0H39.89v7.625l-.188.188q-4.984-9.329-16.61-9.329-7.515 0-12.25 4.094Q6.11 6.688 6.11 14.703z" id="HelveticaWorld-Regular-117"/><path d="M6.594 52.297h8.297v-7.375h.203q5.906 8.89 15.812 8.89 9.813 0 13.922-8.5 3.75 4.594 7.266 6.547 3.515 1.953 8.703 1.953 6.781 0 11.484-4.453Q77 44.922 77 36.187V0h-8.781v33.797q0 6.094-2.297 9.094-2.297 3.015-7.422 3.015-5.172 0-8.75-4.203-3.563-4.203-3.563-9.812V0h-8.78v36.188q0 4.53-2.11 7.124-2.094 2.594-6.094 2.594-6.297 0-10.062-4.687-3.766-4.688-3.766-12.703V0H6.594z" id="HelveticaWorld-Regular-109"/><path d="M14.984 23.688q0-8.407 4.094-13 4.11-4.579 10.219-4.579 6.687 0 10.39 5.438 3.72 5.453 3.72 14.765 0 10.22-3.563 14.907-3.563 4.687-10.735 4.687-6.984 0-10.562-5.5-3.563-5.5-3.563-16.718zm-8.39 28.609h8.297v-7.375h.203q5.61 8.89 15.625 8.89 10.11 0 15.937-7.359 5.828-7.344 5.828-18.766 0-12.796-5.953-21Q40.578-1.515 29.5-1.515q-9.094 0-13.922 7.032h-.203v-26.22H6.594z" id="HelveticaWorld-Regular-112"/><path d="M12.703 26.219q0-8.735 3.953-14.375 3.953-5.64 11.219-5.64 7.531 0 11.438 5.905 3.906 5.907 3.906 14.11 0 8.297-3.907 14.078-3.906 5.797-11.437 5.797-6.969 0-11.078-5.453-4.094-5.438-4.094-14.422zm-8.984 0q0 11.672 6.484 19.625 6.5 7.968 17.672 7.968 11.438 0 17.875-8.062 6.453-8.047 6.453-19.531 0-11.516-6.406-19.625-6.39-8.11-17.922-8.11-11.078 0-17.625 7.86-6.531 7.86-6.531 19.875z" id="HelveticaWorld-Regular-111"/><path d="M6.594 61.813v9.968h8.781v-9.969zM15.375 0H6.594v52.297h8.781z" id="HelveticaWorld-Regular-105"/><path d="M17.188 45.016V10.984q0-2 1.093-3.046 1.11-1.047 3.938-1.047h3.375V0Q20.797-.688 19-.688q-5.516 0-8.063 2.641-2.53 2.64-2.53 8.547v34.516H1.311v7.28h7.094v14.595h8.781V52.297h8.407v-7.281z" id="HelveticaWorld-Regular-116"/><path d="M36.078 37.406q-.187 4.688-3.344 6.735-3.14 2.047-9.047 2.047-4.296 0-7.359-1.907-3.047-1.89-3.047-5.468 0-2.829 1.797-4.172 1.813-1.344 7.828-2.86l8.688-2.187q7.906-2 11.297-5.11 3.406-3.093 3.406-8.656 0-7.719-5.64-12.531-5.641-4.813-15.063-4.813-11 0-16.64 4.563-5.626 4.578-5.735 13.75h8.5q.203-5.422 3.594-8.063 3.39-2.625 10.171-2.625 5.516 0 8.766 2.188 3.25 2.203 3.25 6.11 0 2.78-2.11 4.437-2.093 1.672-8.296 3.078l-10.203 2.5q-6.203 1.562-9.157 4.656-2.953 3.094-2.953 8.031 0 7.72 5.516 12.203 5.531 4.5 14.406 4.5 9.485 0 14.531-4.624 5.047-4.61 5.344-11.782z" id="HelveticaWorld-Regular-115"/></defs><use xlink:href="#HelveticaWorld-Regular-110"/><use x="55.176" xlink:href="#HelveticaWorld-Regular-117"/><use x="109.961" xlink:href="#HelveticaWorld-Regular-109"/><use x="192.969" xlink:href="#HelveticaWorld-Regular-32"/><use x="217.383" xlink:href="#HelveticaWorld-Regular-112"/><use x="273.877" xlink:href="#HelveticaWorld-Regular-111"/><use x="329.785" xlink:href="#HelveticaWorld-Regular-105"/><use x="351.807" xlink:href="#HelveticaWorld-Regular-110"/><use x="406.982" xlink:href="#HelveticaWorld-Regular-116"/><use x="434.668" xlink:href="#HelveticaWorld-Regular-115"/></g></g><g id="matplotlib.axis_2"><g id="ytick_1"><path clip-path="url(#p7f52e8ff4d)" d="M33.66 313.574h357.12" fill="none" stroke="#969696" stroke-linecap="square" stroke-width=".3" id="line2d_3"/><g id="line2d_4"><defs><path d="M0 0h-3.5" id="m50e32ef666" stroke="#969696" stroke-width=".3"/></defs><use x="33.66" xlink:href="#m50e32ef666" y="313.574" fill="#969696" stroke="#969696" stroke-width=".3"/></g><g transform="matrix(.14 0 0 -.14 7.2 318.598)" fill="#969696" id="text_4"><defs><path d="M19.094 0H8.687v10.594h10.407z" id="HelveticaWorld-Regular-46"/></defs><use xlink:href="#HelveticaWorld-Regular-48"/><use x="55.615" xlink:href="#HelveticaWorld-Regular-46"/><use x="83.398" xlink:href="#HelveticaWorld-Regular-48"/></g></g><g id="ytick_2"><path clip-path="url(#p7f52e8ff4d)" d="M33.66 260.351h357.12" fill="none" stroke="#969696" stroke-linecap="square" stroke-width=".3" id="line2d_5"/><use x="33.66" xlink:href="#m50e32ef666" y="260.351" fill="#969696" stroke="#969696" stroke-width=".3" id="line2d_6"/><g transform="matrix(.14 0 0 -.14 7.2 265.376)" fill="#969696" id="text_5"><defs><path d="M4.39 45.125q0 12.39 6.391 18.781 6.406 6.407 17.938 6.407 9.656 0 15.812-5.86 6.157-5.86 6.157-15.14 0-7.22-3.547-12.188-3.532-4.953-10.422-8.703l-12.11-6.64Q13.922 15.921 12.5 8.296h38.188V0H2.593q.39 9.906 4.297 16.5 3.906 6.594 12.203 11.375l12.593 7.328q5.032 2.89 7.329 5.984 2.297 3.094 2.297 8.516 0 5.375-3.766 9.031-3.75 3.672-10.156 3.672-7.078 0-10.594-4.672-3.516-4.656-3.61-12.609z" id="HelveticaWorld-Regular-50"/></defs><use xlink:href="#HelveticaWorld-Regular-48"/><use x="55.615" xlink:href="#HelveticaWorld-Regular-46"/><use x="83.398" xlink:href="#HelveticaWorld-Regular-50"/></g></g><g id="ytick_3"><path clip-path="url(#p7f52e8ff4d)" d="M33.66 207.129h357.12" fill="none" stroke="#969696" stroke-linecap="square" stroke-width=".3" id="line2d_7"/><use x="33.66" xlink:href="#m50e32ef666" y="207.129" fill="#969696" stroke="#969696" stroke-width=".3" id="line2d_8"/><g transform="matrix(.14 0 0 -.14 7.2 212.153)" fill="#969696" id="text_6"><use xlink:href="#HelveticaWorld-Regular-48"/><use x="55.615" xlink:href="#HelveticaWorld-Regular-46"/><use x="83.398" xlink:href="#HelveticaWorld-Regular-52"/></g></g><g id="ytick_4"><path clip-path="url(#p7f52e8ff4d)" d="M33.66 153.906h357.12" fill="none" stroke="#969696" stroke-linecap="square" stroke-width=".3" id="line2d_9"/><use x="33.66" xlink:href="#m50e32ef666" y="153.906" fill="#969696" stroke="#969696" stroke-width=".3" id="line2d_10"/><g transform="matrix(.14 0 0 -.14 7.2 158.931)" fill="#969696" id="text_7"><defs><path d="M14.11 21.578q0-6.875 4.093-11.234Q22.313 6 28.906 6q6.297 0 10.032 4.438 3.734 4.453 3.734 11.687 0 6.297-3.688 10.547-3.687 4.25-10.468 4.25-6.594 0-10.5-4.156-3.907-4.157-3.907-11.188zM41.702 51.61q-.984 5.375-3.984 8.078-3 2.72-8.125 2.72-8.11 0-12.36-7.923-4.25-7.906-4.343-18.109l.203-.188q5.61 8.641 16.687 8.641 8.844 0 15.438-5.86 6.593-5.859 6.593-16.452 0-10.5-6.25-17.47-6.25-6.952-16.843-6.952-12.219 0-18.563 8.687-6.344 8.703-6.344 25.938 0 16.593 6.485 27.093 6.5 10.5 19.484 10.5 8.407 0 14.219-5.015 5.813-5 6.297-13.688z" id="HelveticaWorld-Regular-54"/></defs><use xlink:href="#HelveticaWorld-Regular-48"/><use x="55.615" xlink:href="#HelveticaWorld-Regular-46"/><use x="83.398" xlink:href="#HelveticaWorld-Regular-54"/></g></g><g id="ytick_5"><path clip-path="url(#p7f52e8ff4d)" d="M33.66 100.684h357.12" fill="none" stroke="#969696" stroke-linecap="square" stroke-width=".3" id="line2d_11"/><use x="33.66" xlink:href="#m50e32ef666" y="100.684" fill="#969696" stroke="#969696" stroke-width=".3" id="line2d_12"/><g transform="matrix(.14 0 0 -.14 7.2 105.709)" fill="#969696" id="text_8"><defs><path d="M27.594 40.578q5.422 0 8.953 3.094 3.547 3.11 3.547 8.234 0 4.594-3.407 7.547-3.39 2.953-9.687 2.953-5.61 0-8.672-3.11-3.047-3.093-3.047-7.874 0-5.125 3.813-7.984 3.812-2.86 8.5-2.86zm.093-7.562q-6.78 0-10.64-3.766-3.86-3.766-3.86-9.234 0-6.297 3.907-10.157Q21 6 28.219 6q6.406 0 10.234 3.86 3.828 3.859 3.828 10.265 0 5.469-3.828 9.172-3.828 3.719-10.766 3.719zM49.22 52.203q0-10.594-9.032-14.797 6.204-2.781 8.86-7.36 2.656-4.562 2.656-9.733 0-10.016-6.453-16.125-6.438-6.094-17.375-6.094-9.563 0-16.813 5.25-7.25 5.25-7.25 17.062 0 11.922 11.907 16.907-9.516 3.796-9.516 13.671 0 8.297 5.64 13.813 5.641 5.516 15.641 5.516 10.016 0 15.875-5.204 5.86-5.203 5.86-12.906z" id="HelveticaWorld-Regular-56"/></defs><use xlink:href="#HelveticaWorld-Regular-48"/><use x="55.615" xlink:href="#HelveticaWorld-Regular-46"/><use x="83.398" xlink:href="#HelveticaWorld-Regular-56"/></g></g><g id="ytick_6"><path clip-path="url(#p7f52e8ff4d)" d="M33.66 47.462h357.12" fill="none" stroke="#969696" stroke-linecap="square" stroke-width=".3" id="line2d_13"/><use x="33.66" xlink:href="#m50e32ef666" y="47.462" fill="#969696" stroke="#969696" stroke-width=".3" id="line2d_14"/><g transform="matrix(.14 0 0 -.14 7.2 52.486)" fill="#969696" id="text_9"><use xlink:href="#HelveticaWorld-Regular-49"/><use x="55.615" xlink:href="#HelveticaWorld-Regular-46"/><use x="83.398" xlink:href="#HelveticaWorld-Regular-48"/></g></g></g><path clip-path="url(#p7f52e8ff4d)" d="M41.574 52.475l22.7-2.69 25.856.023 24.763-.58 24.634-.323 25.514.164 24.894-.449 24.183-.278 25.123.027 24.764-.302 25.051-.035 24.741-.104 24.753-.05 24.835-.084 24.814-.055" fill="none" stroke="#2ca02c" stroke-linecap="square" stroke-width="1.5" id="line2d_15"/><path clip-path="url(#p7f52e8ff4d)" d="M41.574 94.435l22.7-24.614L90.13 95.274l24.763 1.037 24.634-12.13 25.514 30.886 24.894-34.106 24.183-5.787 25.123 6.378 24.764-6.383 25.051 21.016 24.741-.372 24.753-21.21 24.835 22.754L388.2 110.96" fill="none" stroke="#98df8a" stroke-dasharray="5.55,2.4" stroke-width="1.5" id="line2d_16"/><path clip-path="url(#p7f52e8ff4d)" d="M47.991 74.006l25.206-.731 23.007 1.537 24.174-.682 23.488 1.1 24.988-.75 25.207 1.392 23.387-.25 24.983.595 24.403.047 24.624.472 24.919-.424 24.587.543 25.108-.076 24.708-.097" fill="none" stroke="#1f77b4" stroke-linecap="square" stroke-width="1.5" id="line2d_17"/><path clip-path="url(#p7f52e8ff4d)" d="M47.991 192.184l25.206-16.554 23.007 19.56 24.174-10.902 23.488 25.077L168.854 204l25.207-2.263 23.387 8.1 24.983-12.082 24.403 12.156 24.624-.29 24.919 1.735 24.587 1.64 25.108 8.234 24.708-12.437" fill="none" stroke="#aec7e8" stroke-dasharray="5.55,2.4" stroke-width="1.5" id="line2d_18"/><path clip-path="url(#p7f52e8ff4d)" d="M46.963 63.32l21.98.184 18.941.125 24.26.124 26.843.1 27.52.074 22.91.045 26.753.039 22.377.024 26.716.02 24.398.014 24.157.01 24.865.007 24.65.006 24.909.004" fill="none" stroke="#8c564b" stroke-linecap="square" stroke-width="1.5" id="line2d_19"/><path clip-path="url(#p7f52e8ff4d)" d="M46.963 87.863l21.98 1.098 18.941.807 24.26.876 26.843.799 27.52.666 22.91.46 26.753.444 22.377.31 26.716.309 24.398.233 24.157.192 24.865.166 24.65.137 24.909.115" fill="none" stroke="#c49c94" stroke-dasharray="5.55,2.4" stroke-width="1.5" id="line2d_20"/><path clip-path="url(#p7f52e8ff4d)" d="M45.213 74.012l22.465-.67 24.715 1.841 24.46-.06 23.475.318 25.082.328 23.77-.667 24.983.503 23.98-.232 25.033.551 24.551-.133 24.593-.073 24.36.252 25.059-.112 24.292-.394" fill="none" stroke="#ff7f0e" stroke-linecap="square" stroke-width="1.5" id="line2d_21"/><path clip-path="url(#p7f52e8ff4d)" d="M45.213 176.363l22.465 7.677 24.715-13.309 24.46 14.893 23.475 8.638 25.082-17.023 23.77 16.084 24.983-18.768 23.98 9.38 25.033-3.442 24.551 16.713 24.593.683 24.36-2.869 25.059.838 24.292-2.48" fill="none" stroke="#ffbb78" stroke-dasharray="5.55,2.4" stroke-width="1.5" id="line2d_22"/><path clip-path="url(#p7f52e8ff4d)" d="M59.409 50.43l22.62-.363 23.016-.565 22.523-.43 22.255-.033 23.443-.314 23.744-.211 22.964-.246 24.407-.063 24.01-.09 23.922-.085 24.24-.156 24.285-.054 24.615-.034 24.325-.04" fill="none" stroke="#d62728" stroke-linecap="square" stroke-width="1.5" id="line2d_23"/><path clip-path="url(#p7f52e8ff4d)" d="M59.409 92.199l22.62-7.037 23.016 9.533 22.523.13 22.255 12.675 23.443-19.39 23.744 1.557 22.964 2.634 24.407 7.945 24.01-2.823 23.922-4.584 24.24 29.757 24.285-25.855 24.615 5.23 24.325 10.885" fill="none" stroke="#ff9896" stroke-dasharray="5.55,2.4" stroke-width="1.5" id="line2d_24"/><path clip-path="url(#p7f52e8ff4d)" d="M33.66 52.621l23.553-.815 24.192-.282 24.67-.378 24.823-.068 24.725-.265 24.715-.076 24.69-.056 24.781-.072 24.7.064 24.73-.132 24.843.026 24.767-.016 24.782-.022 24.775-.011" fill="none" stroke="#9467bd" stroke-linecap="square" stroke-width="1.5" id="line2d_25"/><path clip-path="url(#p7f52e8ff4d)" d="M33.66 108.552l23.553 25.889 24.192 2.28 24.67-9.163 24.823 45.335 24.725-36.376 24.715 5.805 24.69-8.22 24.781 23.122 24.7 7.076 24.73-20.987 24.843 21.413 24.767-7.724 24.782 26.535 24.775-4.341" fill="none" stroke="#c5b0d5" stroke-dasharray="5.55,2.4" stroke-width="1.5" id="line2d_26"/><g transform="matrix(.14 0 0 -.14 391.459 41.131)" fill="#2ca02c" id="text_10"><defs><path d="M13.094 26.313q0-9.704 3.844-14.954 3.859-5.25 10.265-5.25 6.094 0 10.188 4.485 4.109 4.5 4.109 13.094 0 11.03-3.5 16.625-3.484 5.593-10.61 5.593-6.78 0-10.546-4.453-3.75-4.437-3.75-15.14zM50.39 0h-8.297v7.172h-.203q-4.97-8.688-15.078-8.688-10.891 0-16.86 8.297Q4 15.094 4 27.688q0 11.625 5.906 18.875 5.922 7.25 15.875 7.25 9.813 0 15.625-8.891l.203.594V71.78h8.782z" id="HelveticaWorld-Regular-100"/><path d="M49.219 0h-8.844v34.188q0 6.296-2.438 9-2.437 2.718-7.953 2.718-6.797 0-10.703-4.406-3.906-4.39-3.906-12.984V0H6.594v71.781h8.781V45.312h.203q6 8.5 15.328 8.5 8.594 0 13.453-4.5 4.86-4.484 4.86-13.718z" id="HelveticaWorld-Regular-104"/></defs><use xlink:href="#HelveticaWorld-Regular-100"/><use x="56.982" xlink:href="#HelveticaWorld-Regular-109"/><use x="139.99" xlink:href="#HelveticaWorld-Regular-115"/><use x="189.99" xlink:href="#HelveticaWorld-Regular-104"/><use x="245.166" xlink:href="#HelveticaWorld-Regular-32"/><use x="269.58" xlink:href="#HelveticaWorld-Regular-48"/><use x="325.195" xlink:href="#HelveticaWorld-Regular-46"/><use x="352.979" xlink:href="#HelveticaWorld-Regular-50"/><use x="408.594" xlink:href="#HelveticaWorld-Regular-46"/><use x="436.377" xlink:href="#HelveticaWorld-Regular-49"/><use x="491.992" xlink:href="#HelveticaWorld-Regular-48"/></g><g transform="matrix(.14 0 0 -.14 391.459 86.72)" fill="#1f77b4" id="text_11"><defs><path d="M67.484 0v42.39q0 .829.094 8.126t.094 9.78h-.281L47.312 0h-9.609L17.578 60.203h-.297q0-3.61.094-10.297.11-6.687.11-7.515V0H8.108v71.781h13.86L42.39 11.078h.28l20.313 60.703h13.922V0z" id="HelveticaWorld-Regular-77"/><path d="M42.484 30.328q-.687 8.485-4.5 12.031-3.797 3.547-10.109 3.547-6.39 0-10.328-4.5-3.922-4.484-4.172-11.078zm8.391-13.922q-1.453-8.11-7.953-13.422-5.719-4.5-15.047-4.593-10.984.093-17.438 7.203Q4 12.704 4 24.704q0 13.78 6.64 21.437 6.641 7.672 18.47 7.672 10.593 0 16.546-7.922 5.953-7.907 5.953-22.594H13.375q0-8.203 3.813-12.703Q21 6.109 28.608 6.109q5.375 0 9.235 3.235 3.86 3.25 4.25 7.062z" id="HelveticaWorld-Regular-101"/><path d="M17.828 38.625H37.11q7.282 0 10.938 3.188 3.656 3.203 3.656 9.703 0 5.812-3.516 8.89-3.515 3.078-10.687 3.078H17.828zm0-38.625H8.11v71.781h32.266q9.625 0 15.484-5.594 5.86-5.593 5.86-14.578 0-9.328-5.672-15.312-5.656-5.969-15.672-5.969H17.828z" id="HelveticaWorld-Regular-80"/><path d="M39.016 52.297h9.562L29.891.984q-.5-1.375-.985-2.593-4.25-11.329-7.328-15.547-3.078-4.235-9.953-4.235-3.61 0-5.906.782v8.015q2.484-.89 5.468-.89 3.22 0 4.704 2.03 1.5 2.032 4.421 9.938L.875 52.297h9.922L24.812 9.719H25z" id="HelveticaWorld-Regular-121"/></defs><use xlink:href="#HelveticaWorld-Regular-77"/><use x="85.01" xlink:href="#HelveticaWorld-Regular-101"/><use x="140.43" xlink:href="#HelveticaWorld-Regular-115"/><use x="190.43" xlink:href="#HelveticaWorld-Regular-104"/><use x="245.605" xlink:href="#HelveticaWorld-Regular-80"/><use x="310.254" xlink:href="#HelveticaWorld-Regular-121"/><use x="359.863" xlink:href="#HelveticaWorld-Regular-32"/><use x="384.277" xlink:href="#HelveticaWorld-Regular-50"/><use x="439.893" xlink:href="#HelveticaWorld-Regular-48"/><use x="495.508" xlink:href="#HelveticaWorld-Regular-50"/><use x="551.123" xlink:href="#HelveticaWorld-Regular-48"/><use x="606.738" xlink:href="#HelveticaWorld-Regular-46"/><use x="634.521" xlink:href="#HelveticaWorld-Regular-49"/></g><g transform="matrix(.14 0 0 -.14 391.459 68.513)" fill="#8c564b" id="text_12"><defs><path d="M14.11 7.328h32.187V0H2.39v6.89l31.64 38.126H4.938v7.28h40.374v-7.171z" id="HelveticaWorld-Regular-122"/></defs><use xlink:href="#HelveticaWorld-Regular-109"/><use x="83.008" xlink:href="#HelveticaWorld-Regular-101"/><use x="138.428" xlink:href="#HelveticaWorld-Regular-115"/><use x="188.428" xlink:href="#HelveticaWorld-Regular-104"/><use x="243.604" xlink:href="#HelveticaWorld-Regular-122"/><use x="291.072" xlink:href="#HelveticaWorld-Regular-111"/><use x="346.98" xlink:href="#HelveticaWorld-Regular-111"/><use x="402.889" xlink:href="#HelveticaWorld-Regular-32"/><use x="427.303" xlink:href="#HelveticaWorld-Regular-48"/><use x="482.918" xlink:href="#HelveticaWorld-Regular-46"/><use x="510.701" xlink:href="#HelveticaWorld-Regular-54"/><use x="566.316" xlink:href="#HelveticaWorld-Regular-46"/><use x="594.1" xlink:href="#HelveticaWorld-Regular-51"/></g><g transform="matrix(.14 0 0 -.14 391.459 77.682)" fill="#ff7f0e" id="text_13"><defs><path d="M58.016 50.203q-1.625 7.313-6.782 11.094-5.14 3.797-13.343 3.797-10.594 0-17.047-7.703-6.438-7.688-6.438-20.766 0-15.14 6.094-22.547 6.11-7.39 17.688-7.39 7.609 0 13.093 5.046 5.5 5.063 7.407 14.688h9.421Q66.22 12.594 57.625 5.344t-20.906-7.25q-14.703 0-23.516 10.11Q4.391 18.311 4.391 36.28q0 17.328 9.203 27.36 9.203 10.047 24.297 10.047 12.5 0 20.265-6.454 7.766-6.437 9.235-17.03z" id="HelveticaWorld-Regular-67"/><path d="M38.484 38.375h31.532V0h-6.297l-2.344 9.281Q56.781 3.421 50.578.75q-6.187-2.656-12.875-2.656-10.797 0-18.047 4.703-7.25 4.719-11.265 13.015-4 8.313-4 20.72 0 15.468 9.203 26.312 9.203 10.843 24.781 10.843 11.625 0 20.313-6.5Q67.39 60.688 68.796 50h-9.375q-1.703 7.078-7.219 11.078-5.516 4.016-14.312 4.016-10.594 0-17.047-7.985-6.438-7.984-6.438-21.125 0-15.28 6.39-22.437Q27.204 6.39 38.282 6.39q7.235 0 12.235 2.859 5 2.86 7.687 7.766 2.688 4.906 2.688 13.062H38.484z" id="HelveticaWorld-Regular-71"/><path d="M44 29.5L33.406 61.078h-.203L21.687 29.5zm-25.297-8.594L11.188 0h-9.97l27 71.781h10.985L65.187 0H54.594l-7.078 20.906z" id="HelveticaWorld-Regular-65"/><path d="M17.672 8.594h36.531V0H8.11v71.781h9.563z" id="HelveticaWorld-Regular-76"/><path d="M14.703 40.922q5.813 4.39 13.625 4.39 9.469 0 16.281-6.296 6.813-6.297 6.813-16.22 0-10.78-6.578-17.796-6.563-7-18.422-7-10.313 0-16.266 5.047Q4.203 8.109 3.22 17.39h9.094q.671-5.672 4.437-8.672 3.766-3 10.453-3 6.485 0 10.64 4.484Q42 14.703 42 21.688q0 7.125-4.36 11.421-4.343 4.297-11.218 4.297-7.813 0-13.047-6.687l-7.563.39 5.266 37.594h36.438v-8.5H17.672z" id="HelveticaWorld-Regular-53"/><path d="M8.688 10.594h10.406V.78q0-7.422-3.078-11.172-3.078-3.765-7.328-4.312v4.594Q14.015-9.422 14.015 0H8.687z" id="HelveticaWorld-Regular-44"/><path d="M12.984 26.313q0-9.61 3.813-14.907Q20.609 6.11 27.094 6.11q6.312 0 10.312 4.579 4 4.593 4 13 0 11.03-3.5 16.625-3.484 5.593-10.61 5.593-7.171 0-10.75-4.765-3.562-4.766-3.562-14.828zM49.812 2.983q0-12.609-6.062-18.797-6.047-6.203-18.266-6.203-8.78 0-13.984 4.047Q6.297-13.922 5.516-6.39h8.796q.672-3.812 3.532-6.062 2.86-2.25 8.281-2.25 7.375 0 11.125 3.969 3.766 3.953 3.766 12.828v3.719h-.188q-4.937-7.329-13.922-7.329-11.187 0-17.093 8.25-5.907 8.25-5.907 20.953 0 11.625 5.953 18.875 5.97 7.25 15.829 7.25 9.906 0 15.625-8.89h.187v7.375h8.313z" id="HelveticaWorld-Regular-103"/><path d="M38.375 26.703q-.969-1.015-3.828-1.656-2.86-.625-10.672-1.656-5.766-.688-8.469-2.844-2.703-2.14-2.703-5.656 0-4.297 2.281-6.688 2.297-2.39 7.329-2.39 6.296 0 11.171 3.578 4.891 3.593 4.891 8.718zM6.203 36.375q.297 8.844 5.734 13.14 5.454 4.297 15.844 4.297 8.297 0 13.907-3.765 5.624-3.75 5.624-10.844V9.078Q47.313 6 50.094 6q1.125 0 2.89.39V0Q50.594-.984 48-.984q-4.5 0-6.703 1.921-2.188 1.938-2.281 6.047-7.516-8.5-18.891-8.5-7.422 0-11.922 4.204Q3.72 6.89 3.72 13.624q0 6.89 3.906 11.125Q11.531 29 19 29.89l15.516 1.891q4.203.64 4.203 6.203 0 4.11-3.047 6.297-3.047 2.203-9.25 2.203-5.516 0-8.485-2.437-2.953-2.438-3.53-7.672z" id="HelveticaWorld-Regular-97"/><path d="M15.375 0H6.594v71.781h8.781z" id="HelveticaWorld-Regular-108"/><path d="M27.594 31.39q6 0 9.75 4.047 3.765 4.063 3.765 11.97 0 6.5-3.562 10.75-3.563 4.25-10.64 4.25-6.11 0-9.876-4.298-3.75-4.297-3.75-11.53 0-7.376 3.516-11.282 3.515-3.906 10.797-3.906zm-1.282-7.906q-10 0-16.062 6.203-6.047 6.204-6.047 16.5 0 10.407 6.094 17.266 6.11 6.86 16.515 6.86 12.11 0 18.36-8.157 6.25-8.156 6.25-24.453 0-16.906-6.406-28.266Q38.625-1.905 25.875-1.905q-9.953 0-15.422 5.593-5.469 5.594-5.469 13.204h8.829q.39-5.266 3.437-8.375 3.063-3.094 8.438-3.094 7.609 0 11.515 6.781Q41.11 19 42.578 31.688l-.187.203q-5.672-8.407-16.078-8.407z" id="HelveticaWorld-Regular-57"/></defs><use xlink:href="#HelveticaWorld-Regular-67"/><use x="72.314" xlink:href="#HelveticaWorld-Regular-71"/><use x="149.414" xlink:href="#HelveticaWorld-Regular-65"/><use x="216.113" xlink:href="#HelveticaWorld-Regular-76"/><use x="271.729" xlink:href="#HelveticaWorld-Regular-32"/><use x="296.143" xlink:href="#HelveticaWorld-Regular-53"/><use x="351.758" xlink:href="#HelveticaWorld-Regular-46"/><use x="379.541" xlink:href="#HelveticaWorld-Regular-50"/><use x="435.156" xlink:href="#HelveticaWorld-Regular-44"/><use x="462.939" xlink:href="#HelveticaWorld-Regular-32"/><use x="487.354" xlink:href="#HelveticaWorld-Regular-112"/><use x="541.848" xlink:href="#HelveticaWorld-Regular-121"/><use x="589.457" xlink:href="#HelveticaWorld-Regular-103"/><use x="645.365" xlink:href="#HelveticaWorld-Regular-97"/><use x="700.297" xlink:href="#HelveticaWorld-Regular-108"/><use x="722.318" xlink:href="#HelveticaWorld-Regular-109"/><use x="805.326" xlink:href="#HelveticaWorld-Regular-101"/><use x="860.746" xlink:href="#HelveticaWorld-Regular-115"/><use x="910.746" xlink:href="#HelveticaWorld-Regular-104"/><use x="965.922" xlink:href="#HelveticaWorld-Regular-32"/><use x="990.336" xlink:href="#HelveticaWorld-Regular-48"/><use x="1045.951" xlink:href="#HelveticaWorld-Regular-46"/><use x="1073.734" xlink:href="#HelveticaWorld-Regular-57"/><use x="1129.35" xlink:href="#HelveticaWorld-Regular-46"/><use x="1157.133" xlink:href="#HelveticaWorld-Regular-50"/></g><g transform="matrix(.14 0 0 -.14 391.459 50.3)" fill="#d62728" id="text_14"><defs><path d="M3.719 68.797h48.578v-7.719Q42.28 50.875 33.984 33.484 25.687 16.11 23.391 0h-9.672q1.469 13.281 9.719 30.531 8.25 17.266 18.953 29.672H3.719z" id="HelveticaWorld-Regular-55"/></defs><use xlink:href="#HelveticaWorld-Regular-71"/><use x="77.1" xlink:href="#HelveticaWorld-Regular-109"/><use x="160.107" xlink:href="#HelveticaWorld-Regular-115"/><use x="210.107" xlink:href="#HelveticaWorld-Regular-104"/><use x="265.283" xlink:href="#HelveticaWorld-Regular-32"/><use x="289.697" xlink:href="#HelveticaWorld-Regular-52"/><use x="345.313" xlink:href="#HelveticaWorld-Regular-46"/><use x="373.096" xlink:href="#HelveticaWorld-Regular-56"/><use x="428.711" xlink:href="#HelveticaWorld-Regular-46"/><use x="456.494" xlink:href="#HelveticaWorld-Regular-48"/><use x="512.109" xlink:href="#HelveticaWorld-Regular-44"/><use x="539.893" xlink:href="#HelveticaWorld-Regular-32"/><use x="564.307" xlink:href="#HelveticaWorld-Regular-112"/><use x="618.801" xlink:href="#HelveticaWorld-Regular-121"/><use x="666.41" xlink:href="#HelveticaWorld-Regular-103"/><use x="722.318" xlink:href="#HelveticaWorld-Regular-109"/><use x="805.326" xlink:href="#HelveticaWorld-Regular-115"/><use x="855.326" xlink:href="#HelveticaWorld-Regular-104"/><use x="910.502" xlink:href="#HelveticaWorld-Regular-32"/><use x="934.916" xlink:href="#HelveticaWorld-Regular-55"/><use x="990.531" xlink:href="#HelveticaWorld-Regular-46"/><use x="1018.314" xlink:href="#HelveticaWorld-Regular-49"/><use x="1073.93" xlink:href="#HelveticaWorld-Regular-46"/><use x="1101.713" xlink:href="#HelveticaWorld-Regular-53"/></g><g transform="matrix(.14 0 0 -.14 391.459 59.386)" fill="#9467bd" id="text_15"><defs><path d="M50.39 50.781q-.296 6.844-5.109 10.719-4.797 3.875-12.656 3.875-7.922 0-12.172-3.25-4.234-3.234-4.234-9.344 0-3.265 1.843-5.61 1.86-2.343 6.641-3.468l20.516-4.687q8.297-1.813 12.297-6.875 4.015-5.047 4.015-12.313 0-10.64-7.812-16.187-7.813-5.547-20.313-5.547-9.531 0-15.031 2.437-5.484 2.453-9.734 7.766-4.25 5.328-4.25 14.89h9.093q0-8 5.313-12.406 5.328-4.39 14.5-4.39 8.89 0 13.844 3.156 4.953 3.156 4.953 8.953 0 5.281-2.953 7.89Q46.188 29 37.594 31l-15.469 3.625q-7.719 1.75-11.531 6.125Q6.78 45.125 6.78 51.516q0 9.672 6.516 15.922 6.531 6.25 18.203 6.25 13.172 0 20.328-5.5 7.156-5.485 7.688-17.407z" id="HelveticaWorld-Regular-83"/><path d="M39.594 34.719q-1.89 11.187-12.39 11.187-6.5 0-10.454-5.203-3.953-5.203-3.953-14.484 0-10.11 3.656-15.11 3.672-5 10.64-5 4.688 0 8.11 3.438 3.422 3.437 4.39 8.953h8.5q-1.312-9.703-6.859-14.86-5.547-5.156-14.328-5.156-10.297 0-16.89 7.047-6.594 7.063-6.594 19.172 0 13.281 6.594 21.188 6.593 7.922 18.5 7.922 8.687 0 13.843-5.204 5.157-5.203 5.735-13.89z" id="HelveticaWorld-Regular-99"/></defs><use xlink:href="#HelveticaWorld-Regular-83"/><use x="66.211" xlink:href="#HelveticaWorld-Regular-101"/><use x="121.631" xlink:href="#HelveticaWorld-Regular-105"/><use x="143.652" xlink:href="#HelveticaWorld-Regular-115"/><use x="193.652" xlink:href="#HelveticaWorld-Regular-109"/><use x="276.66" xlink:href="#HelveticaWorld-Regular-105"/><use x="298.682" xlink:href="#HelveticaWorld-Regular-99"/><use x="349.951" xlink:href="#HelveticaWorld-Regular-77"/><use x="434.961" xlink:href="#HelveticaWorld-Regular-101"/><use x="490.381" xlink:href="#HelveticaWorld-Regular-115"/><use x="540.381" xlink:href="#HelveticaWorld-Regular-104"/><use x="595.557" xlink:href="#HelveticaWorld-Regular-32"/><use x="619.971" xlink:href="#HelveticaWorld-Regular-51"/><use x="675.586" xlink:href="#HelveticaWorld-Regular-46"/><use x="703.369" xlink:href="#HelveticaWorld-Regular-51"/><use x="758.984" xlink:href="#HelveticaWorld-Regular-46"/><use x="786.768" xlink:href="#HelveticaWorld-Regular-48"/></g><g transform="matrix(.14 0 0 -.14 108.433 17.462)" fill="#969696" id="text_16"><defs><path d="M41.5 23.688q0 11.125-3.5 16.671-3.484 5.547-10.61 5.547-6.874 0-10.593-4.5-3.703-4.484-3.703-15.093 0-9.422 3.75-14.813 3.765-5.39 10.36-5.39 5.812 0 10.046 4.39 4.25 4.39 4.25 13.188zm8.406-44.391H41.11V5.516h-.187Q35.89-1.516 27-1.516q-10.984 0-17 8.157-6 8.156-6 21.047 0 11.421 5.906 18.765 5.922 7.36 15.875 7.36 9.907 0 15.625-8.891h.203v7.375h8.297z" id="HelveticaWorld-Regular-113"/><path d="M39.406 52.297h9.625L29.11 0h-9.437L.594 52.297h10.203L24.422 9.719h.187z" id="HelveticaWorld-Regular-118"/><path d="M29.781 73.297q-8.875-15.875-11.218-25.844-2.344-9.953-2.344-21.969 0-11.859 3.187-22.125Q22.61-6.89 29.891-20.703h-5.86Q15.72-8.593 11.25 2.187 6.781 12.985 6.781 26.125q0 12.36 4.047 23.563 4.063 11.203 12.86 23.609z" id="HelveticaWorld-Regular-40"/><path d="M3.516-20.703q8.796 15.922 11.14 25.86Q17 15.093 17 27.093q0 11.922-3.156 22.172T3.422 73.296h5.765q8.391-12.109 12.86-22.905 4.469-10.797 4.469-23.875 0-12.407-4.063-23.61-4.047-11.203-12.828-23.61z" id="HelveticaWorld-Regular-41"/></defs><use xlink:href="#HelveticaWorld-Regular-99"/><use x="51.27" xlink:href="#HelveticaWorld-Regular-101"/><use x="106.689" xlink:href="#HelveticaWorld-Regular-108"/><use x="128.711" xlink:href="#HelveticaWorld-Regular-108"/><use x="150.732" xlink:href="#HelveticaWorld-Regular-32"/><use x="175.146" xlink:href="#HelveticaWorld-Regular-113"/><use x="231.641" xlink:href="#HelveticaWorld-Regular-117"/><use x="286.426" xlink:href="#HelveticaWorld-Regular-97"/><use x="341.357" xlink:href="#HelveticaWorld-Regular-108"/><use x="363.379" xlink:href="#HelveticaWorld-Regular-105"/><use x="385.4" xlink:href="#HelveticaWorld-Regular-116"/><use x="413.086" xlink:href="#HelveticaWorld-Regular-121"/><use x="452.695" xlink:href="#HelveticaWorld-Regular-44"/><use x="480.479" xlink:href="#HelveticaWorld-Regular-32"/><use x="504.893" xlink:href="#HelveticaWorld-Regular-97"/><use x="557.574" xlink:href="#HelveticaWorld-Regular-118"/><use x="605.684" xlink:href="#HelveticaWorld-Regular-103"/><use x="661.592" xlink:href="#HelveticaWorld-Regular-32"/><use x="686.006" xlink:href="#HelveticaWorld-Regular-32"/><use x="710.42" xlink:href="#HelveticaWorld-Regular-97"/><use x="765.352" xlink:href="#HelveticaWorld-Regular-110"/><use x="820.527" xlink:href="#HelveticaWorld-Regular-100"/><use x="877.51" xlink:href="#HelveticaWorld-Regular-32"/><use x="901.924" xlink:href="#HelveticaWorld-Regular-109"/><use x="984.932" xlink:href="#HelveticaWorld-Regular-105"/><use x="1006.953" xlink:href="#HelveticaWorld-Regular-110"/><use x="1062.129" xlink:href="#HelveticaWorld-Regular-32"/><use x="1086.543" xlink:href="#HelveticaWorld-Regular-40"/><use x="1119.844" xlink:href="#HelveticaWorld-Regular-100"/><use x="1176.826" xlink:href="#HelveticaWorld-Regular-97"/><use x="1231.758" xlink:href="#HelveticaWorld-Regular-115"/><use x="1281.758" xlink:href="#HelveticaWorld-Regular-104"/><use x="1336.934" xlink:href="#HelveticaWorld-Regular-101"/><use x="1392.354" xlink:href="#HelveticaWorld-Regular-100"/><use x="1449.336" xlink:href="#HelveticaWorld-Regular-41"/></g></g></g><defs><clipPath id="p7f52e8ff4d"><path d="M33.66 47.462h357.12v266.112H33.66z"/></clipPath></defs></svg>