<?xml version="1.0" encoding="utf-8" standalone="no"?>
<!DOCTYPE svg PUBLIC "-//W3C//DTD SVG 1.1//EN"
  "http://www.w3.org/Graphics/SVG/1.1/DTD/svg11.dtd">
<!-- Created with matplotlib (https://matplotlib.org/) -->
<svg height="357.669187pt" version="1.1" viewBox="0 0 561.155872 357.669187" width="561.155872pt" xmlns="http://www.w3.org/2000/svg" xmlns:xlink="http://www.w3.org/1999/xlink">
 <metadata>
  <rdf:RDF xmlns:cc="http://creativecommons.org/ns#" xmlns:dc="http://purl.org/dc/elements/1.1/" xmlns:rdf="http://www.w3.org/1999/02/22-rdf-syntax-ns#">
   <cc:Work>
    <dc:type rdf:resource="http://purl.org/dc/dcmitype/StillImage"/>
    <dc:date>2020-10-21T17:21:39.013128</dc:date>
    <dc:format>image/svg+xml</dc:format>
    <dc:creator>
     <cc:Agent>
      <dc:title>Matplotlib v3.3.2, https://matplotlib.org/</dc:title>
     </cc:Agent>
    </dc:creator>
   </cc:Work>
  </rdf:RDF>
 </metadata>
 <defs>
  <style type="text/css">*{stroke-linecap:butt;stroke-linejoin:round;}</style>
 </defs>
 <g id="figure_1">
  <g id="patch_1">
   <path d="M 0 357.669187 
L 561.155872 357.669187 
L 561.155872 0 
L 0 0 
z
" style="fill:none;"/>
  </g>
  <g id="axes_1">
   <g id="patch_2">
    <path d="M 33.66 313.573562 
L 390.78 313.573562 
L 390.78 47.461562 
L 33.66 47.461562 
z
" style="fill:none;"/>
   </g>
   <g id="matplotlib.axis_1">
    <g id="xtick_1">
     <g id="line2d_1">
      <defs>
       <path d="M 0 0 
L 0 3.5 
" id="m889f71aabf" style="stroke:#969696;stroke-width:0.4;"/>
      </defs>
      <g>
       <use style="fill:#969696;stroke:#969696;stroke-width:0.4;" x="259.445112" xlink:href="#m889f71aabf" y="313.573562"/>
      </g>
     </g>
     <g id="text_1">
      <!-- $\mathdefault{10^{3}}$ -->
      <g style="fill:#969696;" transform="translate(248.665112 330.622937)scale(0.14 -0.14)">
       <defs>
        <path d="M 35.890625 0 
L 26.515625 0 
L 26.515625 49.90625 
L 10.109375 49.90625 
L 10.109375 56.890625 
Q 18.703125 57.171875 22.890625 59.640625 
Q 27.09375 62.109375 29 70.3125 
L 35.890625 70.3125 
z
" id="HelveticaWorld-Regular-49"/>
        <path d="M 42.484375 34.1875 
Q 42.484375 48.296875 38.75 55.34375 
Q 35.015625 62.40625 27.78125 62.40625 
Q 20.703125 62.40625 16.890625 55.34375 
Q 13.09375 48.296875 13.09375 34.1875 
Q 13.09375 20.515625 16.84375 13.25 
Q 20.609375 6 27.78125 6 
Q 35.015625 6 38.75 13 
Q 42.484375 20.015625 42.484375 34.1875 
z
M 51.90625 34.1875 
Q 51.90625 16.890625 45.65625 7.484375 
Q 39.40625 -1.90625 27.78125 -1.90625 
Q 15.71875 -1.90625 9.71875 7.828125 
Q 3.71875 17.578125 3.71875 34.1875 
Q 3.71875 51.21875 9.859375 60.765625 
Q 16.015625 70.3125 27.78125 70.3125 
Q 39.40625 70.3125 45.65625 60.8125 
Q 51.90625 51.3125 51.90625 34.1875 
z
" id="HelveticaWorld-Regular-48"/>
        <path d="M 22.40625 39.984375 
Q 24.609375 39.796875 27 39.796875 
Q 33.203125 39.796875 36.78125 42.65625 
Q 40.375 45.515625 40.375 51.3125 
Q 40.375 56 37.03125 59.203125 
Q 33.6875 62.40625 27.390625 62.40625 
Q 20.40625 62.40625 17.15625 58.296875 
Q 13.921875 54.203125 13.71875 47.3125 
L 5.078125 47.3125 
Q 5.078125 58.296875 10.84375 64.296875 
Q 16.609375 70.3125 27.78125 70.3125 
Q 37.703125 70.3125 43.609375 65.203125 
Q 49.515625 60.109375 49.515625 51.8125 
Q 49.515625 41.109375 40.484375 37.3125 
L 40.484375 37.109375 
Q 52.203125 33.109375 52.203125 20.703125 
Q 52.203125 10.796875 45.609375 4.4375 
Q 39.015625 -1.90625 26.90625 -1.90625 
Q 17 -1.90625 10.59375 3.296875 
Q 4.203125 8.5 3.421875 21.484375 
L 12.5 21.484375 
Q 12.703125 13.375 16.5 9.6875 
Q 20.3125 6 27.484375 6 
Q 34.421875 6 38.625 9.859375 
Q 42.828125 13.71875 42.828125 19.578125 
Q 42.828125 25.984375 38.8125 29.25 
Q 34.8125 32.515625 26.421875 32.515625 
Q 24.421875 32.515625 22.40625 32.421875 
z
" id="HelveticaWorld-Regular-51"/>
       </defs>
       <use transform="translate(0 0.173438)" xlink:href="#HelveticaWorld-Regular-49"/>
       <use transform="translate(55.615234 0.173438)" xlink:href="#HelveticaWorld-Regular-48"/>
       <use transform="translate(112.145664 36.78125)scale(0.7)" xlink:href="#HelveticaWorld-Regular-51"/>
      </g>
     </g>
    </g>
    <g id="xtick_2"/>
    <g id="xtick_3"/>
    <g id="xtick_4"/>
    <g id="xtick_5"/>
    <g id="xtick_6"/>
    <g id="xtick_7"/>
    <g id="xtick_8"/>
    <g id="xtick_9"/>
    <g id="xtick_10"/>
    <g id="text_2">
     <!-- num points -->
     <g style="fill:#969696;" transform="translate(178.292969 347.57075)scale(0.14 -0.14)">
      <defs>
       <path d="M 49.21875 0 
L 40.375 0 
L 40.375 32.171875 
Q 40.375 39.59375 37.78125 42.75 
Q 35.203125 45.90625 29.203125 45.90625 
Q 23.296875 45.90625 19.328125 41.40625 
Q 15.375 36.921875 15.375 28.515625 
L 15.375 0 
L 6.59375 0 
L 6.59375 52.296875 
L 14.890625 52.296875 
L 14.890625 44.921875 
L 15.09375 44.921875 
Q 21.296875 53.8125 30.90625 53.8125 
Q 39.796875 53.8125 44.5 49.09375 
Q 49.21875 44.390625 49.21875 35.59375 
z
" id="HelveticaWorld-Regular-110"/>
       <path d="M 6.109375 52.296875 
L 14.890625 52.296875 
L 14.890625 17.578125 
Q 14.890625 11.8125 17.5 8.953125 
Q 20.125 6.109375 25 6.109375 
Q 31.78125 6.109375 35.59375 10.90625 
Q 39.40625 15.71875 39.40625 23.484375 
L 39.40625 52.296875 
L 48.1875 52.296875 
L 48.1875 0 
L 39.890625 0 
L 39.890625 7.625 
L 39.703125 7.8125 
Q 34.71875 -1.515625 23.09375 -1.515625 
Q 15.578125 -1.515625 10.84375 2.578125 
Q 6.109375 6.6875 6.109375 14.703125 
z
" id="HelveticaWorld-Regular-117"/>
       <path d="M 6.59375 52.296875 
L 14.890625 52.296875 
L 14.890625 44.921875 
L 15.09375 44.921875 
Q 21 53.8125 30.90625 53.8125 
Q 40.71875 53.8125 44.828125 45.3125 
Q 48.578125 49.90625 52.09375 51.859375 
Q 55.609375 53.8125 60.796875 53.8125 
Q 67.578125 53.8125 72.28125 49.359375 
Q 77 44.921875 77 36.1875 
L 77 0 
L 68.21875 0 
L 68.21875 33.796875 
Q 68.21875 39.890625 65.921875 42.890625 
Q 63.625 45.90625 58.5 45.90625 
Q 53.328125 45.90625 49.75 41.703125 
Q 46.1875 37.5 46.1875 31.890625 
L 46.1875 0 
L 37.40625 0 
L 37.40625 36.1875 
Q 37.40625 40.71875 35.296875 43.3125 
Q 33.203125 45.90625 29.203125 45.90625 
Q 22.90625 45.90625 19.140625 41.21875 
Q 15.375 36.53125 15.375 28.515625 
L 15.375 0 
L 6.59375 0 
z
" id="HelveticaWorld-Regular-109"/>
       <path id="HelveticaWorld-Regular-32"/>
       <path d="M 14.984375 23.6875 
Q 14.984375 15.28125 19.078125 10.6875 
Q 23.1875 6.109375 29.296875 6.109375 
Q 35.984375 6.109375 39.6875 11.546875 
Q 43.40625 17 43.40625 26.3125 
Q 43.40625 36.53125 39.84375 41.21875 
Q 36.28125 45.90625 29.109375 45.90625 
Q 22.125 45.90625 18.546875 40.40625 
Q 14.984375 34.90625 14.984375 23.6875 
z
M 6.59375 52.296875 
L 14.890625 52.296875 
L 14.890625 44.921875 
L 15.09375 44.921875 
Q 20.703125 53.8125 30.71875 53.8125 
Q 40.828125 53.8125 46.65625 46.453125 
Q 52.484375 39.109375 52.484375 27.6875 
Q 52.484375 14.890625 46.53125 6.6875 
Q 40.578125 -1.515625 29.5 -1.515625 
Q 20.40625 -1.515625 15.578125 5.515625 
L 15.375 5.515625 
L 15.375 -20.703125 
L 6.59375 -20.703125 
z
" id="HelveticaWorld-Regular-112"/>
       <path d="M 12.703125 26.21875 
Q 12.703125 17.484375 16.65625 11.84375 
Q 20.609375 6.203125 27.875 6.203125 
Q 35.40625 6.203125 39.3125 12.109375 
Q 43.21875 18.015625 43.21875 26.21875 
Q 43.21875 34.515625 39.3125 40.296875 
Q 35.40625 46.09375 27.875 46.09375 
Q 20.90625 46.09375 16.796875 40.640625 
Q 12.703125 35.203125 12.703125 26.21875 
z
M 3.71875 26.21875 
Q 3.71875 37.890625 10.203125 45.84375 
Q 16.703125 53.8125 27.875 53.8125 
Q 39.3125 53.8125 45.75 45.75 
Q 52.203125 37.703125 52.203125 26.21875 
Q 52.203125 14.703125 45.796875 6.59375 
Q 39.40625 -1.515625 27.875 -1.515625 
Q 16.796875 -1.515625 10.25 6.34375 
Q 3.71875 14.203125 3.71875 26.21875 
z
" id="HelveticaWorld-Regular-111"/>
       <path d="M 6.59375 61.8125 
L 6.59375 71.78125 
L 15.375 71.78125 
L 15.375 61.8125 
z
M 15.375 0 
L 6.59375 0 
L 6.59375 52.296875 
L 15.375 52.296875 
z
" id="HelveticaWorld-Regular-105"/>
       <path d="M 17.1875 45.015625 
L 17.1875 10.984375 
Q 17.1875 8.984375 18.28125 7.9375 
Q 19.390625 6.890625 22.21875 6.890625 
L 25.59375 6.890625 
L 25.59375 0 
Q 20.796875 -0.6875 19 -0.6875 
Q 13.484375 -0.6875 10.9375 1.953125 
Q 8.40625 4.59375 8.40625 10.5 
L 8.40625 45.015625 
L 1.3125 45.015625 
L 1.3125 52.296875 
L 8.40625 52.296875 
L 8.40625 66.890625 
L 17.1875 66.890625 
L 17.1875 52.296875 
L 25.59375 52.296875 
L 25.59375 45.015625 
z
" id="HelveticaWorld-Regular-116"/>
       <path d="M 36.078125 37.40625 
Q 35.890625 42.09375 32.734375 44.140625 
Q 29.59375 46.1875 23.6875 46.1875 
Q 19.390625 46.1875 16.328125 44.28125 
Q 13.28125 42.390625 13.28125 38.8125 
Q 13.28125 35.984375 15.078125 34.640625 
Q 16.890625 33.296875 22.90625 31.78125 
L 31.59375 29.59375 
Q 39.5 27.59375 42.890625 24.484375 
Q 46.296875 21.390625 46.296875 15.828125 
Q 46.296875 8.109375 40.65625 3.296875 
Q 35.015625 -1.515625 25.59375 -1.515625 
Q 14.59375 -1.515625 8.953125 3.046875 
Q 3.328125 7.625 3.21875 16.796875 
L 11.71875 16.796875 
Q 11.921875 11.375 15.3125 8.734375 
Q 18.703125 6.109375 25.484375 6.109375 
Q 31 6.109375 34.25 8.296875 
Q 37.5 10.5 37.5 14.40625 
Q 37.5 17.1875 35.390625 18.84375 
Q 33.296875 20.515625 27.09375 21.921875 
L 16.890625 24.421875 
Q 10.6875 25.984375 7.734375 29.078125 
Q 4.78125 32.171875 4.78125 37.109375 
Q 4.78125 44.828125 10.296875 49.3125 
Q 15.828125 53.8125 24.703125 53.8125 
Q 34.1875 53.8125 39.234375 49.1875 
Q 44.28125 44.578125 44.578125 37.40625 
z
" id="HelveticaWorld-Regular-115"/>
      </defs>
      <use xlink:href="#HelveticaWorld-Regular-110"/>
      <use x="55.175781" xlink:href="#HelveticaWorld-Regular-117"/>
      <use x="109.960938" xlink:href="#HelveticaWorld-Regular-109"/>
      <use x="192.96875" xlink:href="#HelveticaWorld-Regular-32"/>
      <use x="217.382812" xlink:href="#HelveticaWorld-Regular-112"/>
      <use x="273.876953" xlink:href="#HelveticaWorld-Regular-111"/>
      <use x="329.785156" xlink:href="#HelveticaWorld-Regular-105"/>
      <use x="351.806641" xlink:href="#HelveticaWorld-Regular-110"/>
      <use x="406.982422" xlink:href="#HelveticaWorld-Regular-116"/>
      <use x="434.667969" xlink:href="#HelveticaWorld-Regular-115"/>
     </g>
    </g>
   </g>
   <g id="matplotlib.axis_2">
    <g id="ytick_1">
     <g id="line2d_2">
      <path clip-path="url(#p61734478bb)" d="M 33.66 313.573562 
L 390.78 313.573562 
" style="fill:none;stroke:#969696;stroke-linecap:square;stroke-width:0.3;"/>
     </g>
     <g id="line2d_3">
      <defs>
       <path d="M 0 0 
L -3.5 0 
" id="m010930cc94" style="stroke:#969696;stroke-width:0.3;"/>
      </defs>
      <g>
       <use style="fill:#969696;stroke:#969696;stroke-width:0.3;" x="33.66" xlink:href="#m010930cc94" y="313.573562"/>
      </g>
     </g>
     <g id="text_3">
      <!-- 0.0 -->
      <g style="fill:#969696;" transform="translate(7.2 318.59825)scale(0.14 -0.14)">
       <defs>
        <path d="M 19.09375 0 
L 8.6875 0 
L 8.6875 10.59375 
L 19.09375 10.59375 
z
" id="HelveticaWorld-Regular-46"/>
       </defs>
       <use xlink:href="#HelveticaWorld-Regular-48"/>
       <use x="55.615234" xlink:href="#HelveticaWorld-Regular-46"/>
       <use x="83.398438" xlink:href="#HelveticaWorld-Regular-48"/>
      </g>
     </g>
    </g>
    <g id="ytick_2">
     <g id="line2d_4">
      <path clip-path="url(#p61734478bb)" d="M 33.66 260.351162 
L 390.78 260.351162 
" style="fill:none;stroke:#969696;stroke-linecap:square;stroke-width:0.3;"/>
     </g>
     <g id="line2d_5">
      <g>
       <use style="fill:#969696;stroke:#969696;stroke-width:0.3;" x="33.66" xlink:href="#m010930cc94" y="260.351162"/>
      </g>
     </g>
     <g id="text_4">
      <!-- 0.2 -->
      <g style="fill:#969696;" transform="translate(7.2 265.37585)scale(0.14 -0.14)">
       <defs>
        <path d="M 4.390625 45.125 
Q 4.390625 57.515625 10.78125 63.90625 
Q 17.1875 70.3125 28.71875 70.3125 
Q 38.375 70.3125 44.53125 64.453125 
Q 50.6875 58.59375 50.6875 49.3125 
Q 50.6875 42.09375 47.140625 37.125 
Q 43.609375 32.171875 36.71875 28.421875 
L 24.609375 21.78125 
Q 13.921875 15.921875 12.5 8.296875 
L 50.6875 8.296875 
L 50.6875 0 
L 2.59375 0 
Q 2.984375 9.90625 6.890625 16.5 
Q 10.796875 23.09375 19.09375 27.875 
L 31.6875 35.203125 
Q 36.71875 38.09375 39.015625 41.1875 
Q 41.3125 44.28125 41.3125 49.703125 
Q 41.3125 55.078125 37.546875 58.734375 
Q 33.796875 62.40625 27.390625 62.40625 
Q 20.3125 62.40625 16.796875 57.734375 
Q 13.28125 53.078125 13.1875 45.125 
z
" id="HelveticaWorld-Regular-50"/>
       </defs>
       <use xlink:href="#HelveticaWorld-Regular-48"/>
       <use x="55.615234" xlink:href="#HelveticaWorld-Regular-46"/>
       <use x="83.398438" xlink:href="#HelveticaWorld-Regular-50"/>
      </g>
     </g>
    </g>
    <g id="ytick_3">
     <g id="line2d_6">
      <path clip-path="url(#p61734478bb)" d="M 33.66 207.128762 
L 390.78 207.128762 
" style="fill:none;stroke:#969696;stroke-linecap:square;stroke-width:0.3;"/>
     </g>
     <g id="line2d_7">
      <g>
       <use style="fill:#969696;stroke:#969696;stroke-width:0.3;" x="33.66" xlink:href="#m010930cc94" y="207.128762"/>
      </g>
     </g>
     <g id="text_5">
      <!-- 0.4 -->
      <g style="fill:#969696;" transform="translate(7.2 212.15345)scale(0.14 -0.14)">
       <defs>
        <path d="M 10.59375 24.703125 
L 33.203125 24.703125 
L 33.203125 56.59375 
L 33.015625 56.59375 
z
M 42 17.09375 
L 42 0 
L 33.203125 0 
L 33.203125 17.09375 
L 2.484375 17.09375 
L 2.484375 25.6875 
L 34.71875 70.3125 
L 42 70.3125 
L 42 24.703125 
L 52.296875 24.703125 
L 52.296875 17.09375 
z
" id="HelveticaWorld-Regular-52"/>
       </defs>
       <use xlink:href="#HelveticaWorld-Regular-48"/>
       <use x="55.615234" xlink:href="#HelveticaWorld-Regular-46"/>
       <use x="83.398438" xlink:href="#HelveticaWorld-Regular-52"/>
      </g>
     </g>
    </g>
    <g id="ytick_4">
     <g id="line2d_8">
      <path clip-path="url(#p61734478bb)" d="M 33.66 153.906362 
L 390.78 153.906362 
" style="fill:none;stroke:#969696;stroke-linecap:square;stroke-width:0.3;"/>
     </g>
     <g id="line2d_9">
      <g>
       <use style="fill:#969696;stroke:#969696;stroke-width:0.3;" x="33.66" xlink:href="#m010930cc94" y="153.906362"/>
      </g>
     </g>
     <g id="text_6">
      <!-- 0.6 -->
      <g style="fill:#969696;" transform="translate(7.2 158.93105)scale(0.14 -0.14)">
       <defs>
        <path d="M 14.109375 21.578125 
Q 14.109375 14.703125 18.203125 10.34375 
Q 22.3125 6 28.90625 6 
Q 35.203125 6 38.9375 10.4375 
Q 42.671875 14.890625 42.671875 22.125 
Q 42.671875 28.421875 38.984375 32.671875 
Q 35.296875 36.921875 28.515625 36.921875 
Q 21.921875 36.921875 18.015625 32.765625 
Q 14.109375 28.609375 14.109375 21.578125 
z
M 41.703125 51.609375 
Q 40.71875 56.984375 37.71875 59.6875 
Q 34.71875 62.40625 29.59375 62.40625 
Q 21.484375 62.40625 17.234375 54.484375 
Q 12.984375 46.578125 12.890625 36.375 
L 13.09375 36.1875 
Q 18.703125 44.828125 29.78125 44.828125 
Q 38.625 44.828125 45.21875 38.96875 
Q 51.8125 33.109375 51.8125 22.515625 
Q 51.8125 12.015625 45.5625 5.046875 
Q 39.3125 -1.90625 28.71875 -1.90625 
Q 16.5 -1.90625 10.15625 6.78125 
Q 3.8125 15.484375 3.8125 32.71875 
Q 3.8125 49.3125 10.296875 59.8125 
Q 16.796875 70.3125 29.78125 70.3125 
Q 38.1875 70.3125 44 65.296875 
Q 49.8125 60.296875 50.296875 51.609375 
z
" id="HelveticaWorld-Regular-54"/>
       </defs>
       <use xlink:href="#HelveticaWorld-Regular-48"/>
       <use x="55.615234" xlink:href="#HelveticaWorld-Regular-46"/>
       <use x="83.398438" xlink:href="#HelveticaWorld-Regular-54"/>
      </g>
     </g>
    </g>
    <g id="ytick_5">
     <g id="line2d_10">
      <path clip-path="url(#p61734478bb)" d="M 33.66 100.683962 
L 390.78 100.683962 
" style="fill:none;stroke:#969696;stroke-linecap:square;stroke-width:0.3;"/>
     </g>
     <g id="line2d_11">
      <g>
       <use style="fill:#969696;stroke:#969696;stroke-width:0.3;" x="33.66" xlink:href="#m010930cc94" y="100.683962"/>
      </g>
     </g>
     <g id="text_7">
      <!-- 0.8 -->
      <g style="fill:#969696;" transform="translate(7.2 105.70865)scale(0.14 -0.14)">
       <defs>
        <path d="M 27.59375 40.578125 
Q 33.015625 40.578125 36.546875 43.671875 
Q 40.09375 46.78125 40.09375 51.90625 
Q 40.09375 56.5 36.6875 59.453125 
Q 33.296875 62.40625 27 62.40625 
Q 21.390625 62.40625 18.328125 59.296875 
Q 15.28125 56.203125 15.28125 51.421875 
Q 15.28125 46.296875 19.09375 43.4375 
Q 22.90625 40.578125 27.59375 40.578125 
z
M 27.6875 33.015625 
Q 20.90625 33.015625 17.046875 29.25 
Q 13.1875 25.484375 13.1875 20.015625 
Q 13.1875 13.71875 17.09375 9.859375 
Q 21 6 28.21875 6 
Q 34.625 6 38.453125 9.859375 
Q 42.28125 13.71875 42.28125 20.125 
Q 42.28125 25.59375 38.453125 29.296875 
Q 34.625 33.015625 27.6875 33.015625 
z
M 49.21875 52.203125 
Q 49.21875 41.609375 40.1875 37.40625 
Q 46.390625 34.625 49.046875 30.046875 
Q 51.703125 25.484375 51.703125 20.3125 
Q 51.703125 10.296875 45.25 4.1875 
Q 38.8125 -1.90625 27.875 -1.90625 
Q 18.3125 -1.90625 11.0625 3.34375 
Q 3.8125 8.59375 3.8125 20.40625 
Q 3.8125 32.328125 15.71875 37.3125 
Q 6.203125 41.109375 6.203125 50.984375 
Q 6.203125 59.28125 11.84375 64.796875 
Q 17.484375 70.3125 27.484375 70.3125 
Q 37.5 70.3125 43.359375 65.109375 
Q 49.21875 59.90625 49.21875 52.203125 
z
" id="HelveticaWorld-Regular-56"/>
       </defs>
       <use xlink:href="#HelveticaWorld-Regular-48"/>
       <use x="55.615234" xlink:href="#HelveticaWorld-Regular-46"/>
       <use x="83.398438" xlink:href="#HelveticaWorld-Regular-56"/>
      </g>
     </g>
    </g>
    <g id="ytick_6">
     <g id="line2d_12">
      <path clip-path="url(#p61734478bb)" d="M 33.66 47.461562 
L 390.78 47.461562 
" style="fill:none;stroke:#969696;stroke-linecap:square;stroke-width:0.3;"/>
     </g>
     <g id="line2d_13">
      <g>
       <use style="fill:#969696;stroke:#969696;stroke-width:0.3;" x="33.66" xlink:href="#m010930cc94" y="47.461562"/>
      </g>
     </g>
     <g id="text_8">
      <!-- 1.0 -->
      <g style="fill:#969696;" transform="translate(7.2 52.48625)scale(0.14 -0.14)">
       <use xlink:href="#HelveticaWorld-Regular-49"/>
       <use x="55.615234" xlink:href="#HelveticaWorld-Regular-46"/>
       <use x="83.398438" xlink:href="#HelveticaWorld-Regular-48"/>
      </g>
     </g>
    </g>
   </g>
   <g id="line2d_14">
    <path clip-path="url(#p61734478bb)" d="M 41.16948 53.810974 
L 93.664011 54.022022 
L 129.929072 53.96759 
L 161.189757 54.162631 
L 199.560311 53.798986 
L 236.053541 53.383174 
L 262.347211 52.899665 
L 280.83389 53.387699 
L 292.58066 52.916095 
L 313.07267 52.456149 
L 331.438252 58.428596 
L 350.349595 65.235582 
L 356.535891 69.701876 
L 368.946005 78.232437 
L 381.030796 71.699865 
" style="fill:none;stroke:#2ca02c;stroke-linecap:square;stroke-width:1.5;"/>
   </g>
   <g id="line2d_15">
    <path clip-path="url(#p61734478bb)" d="M 41.16948 84.570911 
L 93.664011 95.26113 
L 129.929072 94.019038 
L 161.189757 122.045583 
L 199.560311 97.642096 
L 236.053541 97.463977 
L 262.347211 105.369199 
L 280.83389 125.350086 
L 292.58066 119.433237 
L 313.07267 98.742159 
L 331.438252 313.570376 
L 350.349595 313.570782 
L 356.535891 313.573212 
L 368.946005 313.573213 
L 381.030796 313.570262 
" style="fill:none;stroke:#98df8a;stroke-dasharray:5.55,2.4;stroke-dashoffset:0;stroke-width:1.5;"/>
   </g>
   <g id="line2d_16">
    <path clip-path="url(#p61734478bb)" d="M 54.280355 75.245132 
L 93.188802 73.998346 
L 136.117442 73.725697 
L 173.890968 72.036929 
L 209.70749 71.83463 
L 236.053541 73.193781 
L 261.507852 72.126619 
L 283.87798 72.246439 
L 301.662299 72.711713 
L 320.053766 73.122287 
L 334.789122 72.511271 
L 350.465967 72.276558 
L 362.898206 72.700232 
L 375.990255 72.137997 
L 386.869392 72.828181 
" style="fill:none;stroke:#1f77b4;stroke-linecap:square;stroke-width:1.5;"/>
   </g>
   <g id="line2d_17">
    <path clip-path="url(#p61734478bb)" d="M 54.280355 183.411143 
L 93.188802 200.914595 
L 136.117442 248.867003 
L 173.890968 252.933312 
L 209.70749 172.448203 
L 236.053541 193.431412 
L 261.507852 170.40133 
L 283.87798 176.413874 
L 301.662299 190.509856 
L 320.053766 182.992826 
L 334.789122 238.238878 
L 350.465967 186.123379 
L 362.898206 231.690615 
L 375.990255 184.569959 
L 386.869392 236.973125 
" style="fill:none;stroke:#aec7e8;stroke-dasharray:5.55,2.4;stroke-dashoffset:0;stroke-width:1.5;"/>
   </g>
   <g id="line2d_18">
    <path clip-path="url(#p61734478bb)" d="M 63.722012 54.32998 
L 103.239429 54.502706 
L 148.236486 53.818608 
L 181.526419 54.164712 
L 212.61246 54.036352 
L 241.981471 53.59981 
L 266.921083 53.845022 
L 288.981397 53.988206 
L 308.733561 53.598414 
L 325.37963 53.743886 
L 341.977872 53.691101 
L 357.032978 53.663707 
L 368.595457 53.78432 
L 381.347514 53.863279 
L 390.78 53.730356 
" style="fill:none;stroke:#d62728;stroke-linecap:square;stroke-width:1.5;"/>
   </g>
   <g id="line2d_19">
    <path clip-path="url(#p61734478bb)" d="M 63.722012 99.559964 
L 103.239429 117.512763 
L 148.236486 123.21343 
L 181.526419 115.192838 
L 212.61246 125.079535 
L 241.981471 115.964622 
L 266.921083 128.877328 
L 288.981397 127.935975 
L 308.733561 123.168471 
L 325.37963 126.700812 
L 341.977872 122.430638 
L 357.032978 120.886705 
L 368.595457 132.53193 
L 381.347514 127.116046 
L 390.78 126.45095 
" style="fill:none;stroke:#ff9896;stroke-dasharray:5.55,2.4;stroke-dashoffset:0;stroke-width:1.5;"/>
   </g>
   <g id="line2d_20">
    <path clip-path="url(#p61734478bb)" d="M 33.66 59.799081 
L 80.66601 60.57445 
L 123.782361 59.407983 
L 155.315054 60.880016 
L 191.089401 57.751623 
L 224.568446 60.644342 
L 246.416516 60.782133 
L 263.299482 60.839584 
L 288.403288 59.12135 
L 305.836696 64.58642 
L 325.522331 59.784014 
L 335.645523 59.603192 
L 343.21829 66.501973 
L 361.098672 60.286515 
L 362.371673 61.034523 
" style="fill:none;stroke:#9467bd;stroke-linecap:square;stroke-width:1.5;"/>
   </g>
   <g id="line2d_21">
    <path clip-path="url(#p61734478bb)" d="M 33.66 135.804829 
L 80.66601 247.604607 
L 123.782361 297.947578 
L 155.315054 303.6522 
L 191.089401 239.207416 
L 224.568446 231.348257 
L 246.416516 313.529991 
L 263.299482 297.815143 
L 288.403288 165.88145 
L 305.836696 299.986713 
L 325.522331 155.060694 
L 335.645523 238.59016 
L 343.21829 311.675632 
L 361.098672 291.325482 
L 362.371673 138.406863 
" style="fill:none;stroke:#c5b0d5;stroke-dasharray:5.55,2.4;stroke-dashoffset:0;stroke-width:1.5;"/>
   </g>
   <g id="text_9">
    <!-- dmsh 0.2.4 -->
    <g style="fill:#2ca02c;" transform="translate(391.932122 75.26731)scale(0.14 -0.14)">
     <defs>
      <path d="M 13.09375 26.3125 
Q 13.09375 16.609375 16.9375 11.359375 
Q 20.796875 6.109375 27.203125 6.109375 
Q 33.296875 6.109375 37.390625 10.59375 
Q 41.5 15.09375 41.5 23.6875 
Q 41.5 34.71875 38 40.3125 
Q 34.515625 45.90625 27.390625 45.90625 
Q 20.609375 45.90625 16.84375 41.453125 
Q 13.09375 37.015625 13.09375 26.3125 
z
M 50.390625 0 
L 42.09375 0 
L 42.09375 7.171875 
L 41.890625 7.171875 
Q 36.921875 -1.515625 26.8125 -1.515625 
Q 15.921875 -1.515625 9.953125 6.78125 
Q 4 15.09375 4 27.6875 
Q 4 39.3125 9.90625 46.5625 
Q 15.828125 53.8125 25.78125 53.8125 
Q 35.59375 53.8125 41.40625 44.921875 
L 41.609375 45.515625 
L 41.609375 71.78125 
L 50.390625 71.78125 
z
" id="HelveticaWorld-Regular-100"/>
      <path d="M 49.21875 0 
L 40.375 0 
L 40.375 34.1875 
Q 40.375 40.484375 37.9375 43.1875 
Q 35.5 45.90625 29.984375 45.90625 
Q 23.1875 45.90625 19.28125 41.5 
Q 15.375 37.109375 15.375 28.515625 
L 15.375 0 
L 6.59375 0 
L 6.59375 71.78125 
L 15.375 71.78125 
L 15.375 45.3125 
L 15.578125 45.3125 
Q 21.578125 53.8125 30.90625 53.8125 
Q 39.5 53.8125 44.359375 49.3125 
Q 49.21875 44.828125 49.21875 35.59375 
z
" id="HelveticaWorld-Regular-104"/>
     </defs>
     <use xlink:href="#HelveticaWorld-Regular-100"/>
     <use x="56.982422" xlink:href="#HelveticaWorld-Regular-109"/>
     <use x="139.990234" xlink:href="#HelveticaWorld-Regular-115"/>
     <use x="189.990234" xlink:href="#HelveticaWorld-Regular-104"/>
     <use x="245.166016" xlink:href="#HelveticaWorld-Regular-32"/>
     <use x="269.580078" xlink:href="#HelveticaWorld-Regular-48"/>
     <use x="325.195312" xlink:href="#HelveticaWorld-Regular-46"/>
     <use x="352.978516" xlink:href="#HelveticaWorld-Regular-50"/>
     <use x="408.59375" xlink:href="#HelveticaWorld-Regular-46"/>
     <use x="436.376953" xlink:href="#HelveticaWorld-Regular-52"/>
    </g>
   </g>
   <g id="text_10">
    <!-- MeshPy 2018.2.1 -->
    <g style="fill:#1f77b4;" transform="translate(391.932122 88.956404)scale(0.14 -0.14)">
     <defs>
      <path d="M 67.484375 0 
L 67.484375 42.390625 
Q 67.484375 43.21875 67.578125 50.515625 
Q 67.671875 57.8125 67.671875 60.296875 
L 67.390625 60.296875 
L 47.3125 0 
L 37.703125 0 
L 17.578125 60.203125 
L 17.28125 60.203125 
Q 17.28125 56.59375 17.375 49.90625 
Q 17.484375 43.21875 17.484375 42.390625 
L 17.484375 0 
L 8.109375 0 
L 8.109375 71.78125 
L 21.96875 71.78125 
L 42.390625 11.078125 
L 42.671875 11.078125 
L 62.984375 71.78125 
L 76.90625 71.78125 
L 76.90625 0 
z
" id="HelveticaWorld-Regular-77"/>
      <path d="M 42.484375 30.328125 
Q 41.796875 38.8125 37.984375 42.359375 
Q 34.1875 45.90625 27.875 45.90625 
Q 21.484375 45.90625 17.546875 41.40625 
Q 13.625 36.921875 13.375 30.328125 
z
M 50.875 16.40625 
Q 49.421875 8.296875 42.921875 2.984375 
Q 37.203125 -1.515625 27.875 -1.609375 
Q 16.890625 -1.515625 10.4375 5.59375 
Q 4 12.703125 4 24.703125 
Q 4 38.484375 10.640625 46.140625 
Q 17.28125 53.8125 29.109375 53.8125 
Q 39.703125 53.8125 45.65625 45.890625 
Q 51.609375 37.984375 51.609375 23.296875 
L 13.375 23.296875 
Q 13.375 15.09375 17.1875 10.59375 
Q 21 6.109375 28.609375 6.109375 
Q 33.984375 6.109375 37.84375 9.34375 
Q 41.703125 12.59375 42.09375 16.40625 
z
" id="HelveticaWorld-Regular-101"/>
      <path d="M 17.828125 38.625 
L 37.109375 38.625 
Q 44.390625 38.625 48.046875 41.8125 
Q 51.703125 45.015625 51.703125 51.515625 
Q 51.703125 57.328125 48.1875 60.40625 
Q 44.671875 63.484375 37.5 63.484375 
L 17.828125 63.484375 
z
M 17.828125 0 
L 8.109375 0 
L 8.109375 71.78125 
L 40.375 71.78125 
Q 50 71.78125 55.859375 66.1875 
Q 61.71875 60.59375 61.71875 51.609375 
Q 61.71875 42.28125 56.046875 36.296875 
Q 50.390625 30.328125 40.375 30.328125 
L 17.828125 30.328125 
z
" id="HelveticaWorld-Regular-80"/>
      <path d="M 39.015625 52.296875 
L 48.578125 52.296875 
L 29.890625 0.984375 
Q 29.390625 -0.390625 28.90625 -1.609375 
Q 24.65625 -12.9375 21.578125 -17.15625 
Q 18.5 -21.390625 11.625 -21.390625 
Q 8.015625 -21.390625 5.71875 -20.609375 
L 5.71875 -12.59375 
Q 8.203125 -13.484375 11.1875 -13.484375 
Q 14.40625 -13.484375 15.890625 -11.453125 
Q 17.390625 -9.421875 20.3125 -1.515625 
L 0.875 52.296875 
L 10.796875 52.296875 
L 24.8125 9.71875 
L 25 9.71875 
z
" id="HelveticaWorld-Regular-121"/>
     </defs>
     <use xlink:href="#HelveticaWorld-Regular-77"/>
     <use x="85.009766" xlink:href="#HelveticaWorld-Regular-101"/>
     <use x="140.429688" xlink:href="#HelveticaWorld-Regular-115"/>
     <use x="190.429688" xlink:href="#HelveticaWorld-Regular-104"/>
     <use x="245.605469" xlink:href="#HelveticaWorld-Regular-80"/>
     <use x="310.253906" xlink:href="#HelveticaWorld-Regular-121"/>
     <use x="359.863281" xlink:href="#HelveticaWorld-Regular-32"/>
     <use x="384.277344" xlink:href="#HelveticaWorld-Regular-50"/>
     <use x="439.892578" xlink:href="#HelveticaWorld-Regular-48"/>
     <use x="495.507812" xlink:href="#HelveticaWorld-Regular-49"/>
     <use x="551.123047" xlink:href="#HelveticaWorld-Regular-56"/>
     <use x="606.738281" xlink:href="#HelveticaWorld-Regular-46"/>
     <use x="634.521484" xlink:href="#HelveticaWorld-Regular-50"/>
     <use x="690.136719" xlink:href="#HelveticaWorld-Regular-46"/>
     <use x="717.919922" xlink:href="#HelveticaWorld-Regular-49"/>
    </g>
   </g>
   <g id="text_11">
    <!-- Gmsh 4.7.0, pygmsh 7.0.4 -->
    <g style="fill:#d62728;" transform="translate(391.932122 47.834434)scale(0.14 -0.14)">
     <defs>
      <path d="M 38.484375 38.375 
L 70.015625 38.375 
L 70.015625 0 
L 63.71875 0 
L 61.375 9.28125 
Q 56.78125 3.421875 50.578125 0.75 
Q 44.390625 -1.90625 37.703125 -1.90625 
Q 26.90625 -1.90625 19.65625 2.796875 
Q 12.40625 7.515625 8.390625 15.8125 
Q 4.390625 24.125 4.390625 36.53125 
Q 4.390625 52 13.59375 62.84375 
Q 22.796875 73.6875 38.375 73.6875 
Q 50 73.6875 58.6875 67.1875 
Q 67.390625 60.6875 68.796875 50 
L 59.421875 50 
Q 57.71875 57.078125 52.203125 61.078125 
Q 46.6875 65.09375 37.890625 65.09375 
Q 27.296875 65.09375 20.84375 57.109375 
Q 14.40625 49.125 14.40625 35.984375 
Q 14.40625 20.703125 20.796875 13.546875 
Q 27.203125 6.390625 38.28125 6.390625 
Q 45.515625 6.390625 50.515625 9.25 
Q 55.515625 12.109375 58.203125 17.015625 
Q 60.890625 21.921875 60.890625 30.078125 
L 38.484375 30.078125 
z
" id="HelveticaWorld-Regular-71"/>
      <path d="M 3.71875 68.796875 
L 52.296875 68.796875 
L 52.296875 61.078125 
Q 42.28125 50.875 33.984375 33.484375 
Q 25.6875 16.109375 23.390625 0 
L 13.71875 0 
Q 15.1875 13.28125 23.4375 30.53125 
Q 31.6875 47.796875 42.390625 60.203125 
L 3.71875 60.203125 
z
" id="HelveticaWorld-Regular-55"/>
      <path d="M 8.6875 10.59375 
L 19.09375 10.59375 
L 19.09375 0.78125 
Q 19.09375 -6.640625 16.015625 -10.390625 
Q 12.9375 -14.15625 8.6875 -14.703125 
L 8.6875 -10.109375 
Q 14.015625 -9.421875 14.015625 0 
L 8.6875 0 
z
" id="HelveticaWorld-Regular-44"/>
      <path d="M 12.984375 26.3125 
Q 12.984375 16.703125 16.796875 11.40625 
Q 20.609375 6.109375 27.09375 6.109375 
Q 33.40625 6.109375 37.40625 10.6875 
Q 41.40625 15.28125 41.40625 23.6875 
Q 41.40625 34.71875 37.90625 40.3125 
Q 34.421875 45.90625 27.296875 45.90625 
Q 20.125 45.90625 16.546875 41.140625 
Q 12.984375 36.375 12.984375 26.3125 
z
M 49.8125 2.984375 
Q 49.8125 -9.625 43.75 -15.8125 
Q 37.703125 -22.015625 25.484375 -22.015625 
Q 16.703125 -22.015625 11.5 -17.96875 
Q 6.296875 -13.921875 5.515625 -6.390625 
L 14.3125 -6.390625 
Q 14.984375 -10.203125 17.84375 -12.453125 
Q 20.703125 -14.703125 26.125 -14.703125 
Q 33.5 -14.703125 37.25 -10.734375 
Q 41.015625 -6.78125 41.015625 2.09375 
L 41.015625 5.8125 
L 40.828125 5.8125 
Q 35.890625 -1.515625 26.90625 -1.515625 
Q 15.71875 -1.515625 9.8125 6.734375 
Q 3.90625 14.984375 3.90625 27.6875 
Q 3.90625 39.3125 9.859375 46.5625 
Q 15.828125 53.8125 25.6875 53.8125 
Q 35.59375 53.8125 41.3125 44.921875 
L 41.5 44.921875 
L 41.5 52.296875 
L 49.8125 52.296875 
z
" id="HelveticaWorld-Regular-103"/>
     </defs>
     <use xlink:href="#HelveticaWorld-Regular-71"/>
     <use x="77.099609" xlink:href="#HelveticaWorld-Regular-109"/>
     <use x="160.107422" xlink:href="#HelveticaWorld-Regular-115"/>
     <use x="210.107422" xlink:href="#HelveticaWorld-Regular-104"/>
     <use x="265.283203" xlink:href="#HelveticaWorld-Regular-32"/>
     <use x="289.697266" xlink:href="#HelveticaWorld-Regular-52"/>
     <use x="345.3125" xlink:href="#HelveticaWorld-Regular-46"/>
     <use x="373.095703" xlink:href="#HelveticaWorld-Regular-55"/>
     <use x="428.710938" xlink:href="#HelveticaWorld-Regular-46"/>
     <use x="456.494141" xlink:href="#HelveticaWorld-Regular-48"/>
     <use x="512.109375" xlink:href="#HelveticaWorld-Regular-44"/>
     <use x="539.892578" xlink:href="#HelveticaWorld-Regular-32"/>
     <use x="564.306641" xlink:href="#HelveticaWorld-Regular-112"/>
     <use x="618.800781" xlink:href="#HelveticaWorld-Regular-121"/>
     <use x="666.410156" xlink:href="#HelveticaWorld-Regular-103"/>
     <use x="722.318359" xlink:href="#HelveticaWorld-Regular-109"/>
     <use x="805.326172" xlink:href="#HelveticaWorld-Regular-115"/>
     <use x="855.326172" xlink:href="#HelveticaWorld-Regular-104"/>
     <use x="910.501953" xlink:href="#HelveticaWorld-Regular-32"/>
     <use x="934.916016" xlink:href="#HelveticaWorld-Regular-55"/>
     <use x="990.53125" xlink:href="#HelveticaWorld-Regular-46"/>
     <use x="1018.314453" xlink:href="#HelveticaWorld-Regular-48"/>
     <use x="1073.929688" xlink:href="#HelveticaWorld-Regular-46"/>
     <use x="1101.712891" xlink:href="#HelveticaWorld-Regular-52"/>
    </g>
   </g>
   <g id="text_12">
    <!-- SeismicMesh 3.0.5 -->
    <g style="fill:#9467bd;" transform="translate(391.932122 61.53009)scale(0.14 -0.14)">
     <defs>
      <path d="M 50.390625 50.78125 
Q 50.09375 57.625 45.28125 61.5 
Q 40.484375 65.375 32.625 65.375 
Q 24.703125 65.375 20.453125 62.125 
Q 16.21875 58.890625 16.21875 52.78125 
Q 16.21875 49.515625 18.0625 47.171875 
Q 19.921875 44.828125 24.703125 43.703125 
L 45.21875 39.015625 
Q 53.515625 37.203125 57.515625 32.140625 
Q 61.53125 27.09375 61.53125 19.828125 
Q 61.53125 9.1875 53.71875 3.640625 
Q 45.90625 -1.90625 33.40625 -1.90625 
Q 23.875 -1.90625 18.375 0.53125 
Q 12.890625 2.984375 8.640625 8.296875 
Q 4.390625 13.625 4.390625 23.1875 
L 13.484375 23.1875 
Q 13.484375 15.1875 18.796875 10.78125 
Q 24.125 6.390625 33.296875 6.390625 
Q 42.1875 6.390625 47.140625 9.546875 
Q 52.09375 12.703125 52.09375 18.5 
Q 52.09375 23.78125 49.140625 26.390625 
Q 46.1875 29 37.59375 31 
L 22.125 34.625 
Q 14.40625 36.375 10.59375 40.75 
Q 6.78125 45.125 6.78125 51.515625 
Q 6.78125 61.1875 13.296875 67.4375 
Q 19.828125 73.6875 31.5 73.6875 
Q 44.671875 73.6875 51.828125 68.1875 
Q 58.984375 62.703125 59.515625 50.78125 
z
" id="HelveticaWorld-Regular-83"/>
      <path d="M 39.59375 34.71875 
Q 37.703125 45.90625 27.203125 45.90625 
Q 20.703125 45.90625 16.75 40.703125 
Q 12.796875 35.5 12.796875 26.21875 
Q 12.796875 16.109375 16.453125 11.109375 
Q 20.125 6.109375 27.09375 6.109375 
Q 31.78125 6.109375 35.203125 9.546875 
Q 38.625 12.984375 39.59375 18.5 
L 48.09375 18.5 
Q 46.78125 8.796875 41.234375 3.640625 
Q 35.6875 -1.515625 26.90625 -1.515625 
Q 16.609375 -1.515625 10.015625 5.53125 
Q 3.421875 12.59375 3.421875 24.703125 
Q 3.421875 37.984375 10.015625 45.890625 
Q 16.609375 53.8125 28.515625 53.8125 
Q 37.203125 53.8125 42.359375 48.609375 
Q 47.515625 43.40625 48.09375 34.71875 
z
" id="HelveticaWorld-Regular-99"/>
      <path d="M 14.703125 40.921875 
Q 20.515625 45.3125 28.328125 45.3125 
Q 37.796875 45.3125 44.609375 39.015625 
Q 51.421875 32.71875 51.421875 22.796875 
Q 51.421875 12.015625 44.84375 5 
Q 38.28125 -2 26.421875 -2 
Q 16.109375 -2 10.15625 3.046875 
Q 4.203125 8.109375 3.21875 17.390625 
L 12.3125 17.390625 
Q 12.984375 11.71875 16.75 8.71875 
Q 20.515625 5.71875 27.203125 5.71875 
Q 33.6875 5.71875 37.84375 10.203125 
Q 42 14.703125 42 21.6875 
Q 42 28.8125 37.640625 33.109375 
Q 33.296875 37.40625 26.421875 37.40625 
Q 18.609375 37.40625 13.375 30.71875 
L 5.8125 31.109375 
L 11.078125 68.703125 
L 47.515625 68.703125 
L 47.515625 60.203125 
L 17.671875 60.203125 
z
" id="HelveticaWorld-Regular-53"/>
     </defs>
     <use xlink:href="#HelveticaWorld-Regular-83"/>
     <use x="66.210938" xlink:href="#HelveticaWorld-Regular-101"/>
     <use x="121.630859" xlink:href="#HelveticaWorld-Regular-105"/>
     <use x="143.652344" xlink:href="#HelveticaWorld-Regular-115"/>
     <use x="193.652344" xlink:href="#HelveticaWorld-Regular-109"/>
     <use x="276.660156" xlink:href="#HelveticaWorld-Regular-105"/>
     <use x="298.681641" xlink:href="#HelveticaWorld-Regular-99"/>
     <use x="349.951172" xlink:href="#HelveticaWorld-Regular-77"/>
     <use x="434.960938" xlink:href="#HelveticaWorld-Regular-101"/>
     <use x="490.380859" xlink:href="#HelveticaWorld-Regular-115"/>
     <use x="540.380859" xlink:href="#HelveticaWorld-Regular-104"/>
     <use x="595.556641" xlink:href="#HelveticaWorld-Regular-32"/>
     <use x="619.970703" xlink:href="#HelveticaWorld-Regular-51"/>
     <use x="675.585938" xlink:href="#HelveticaWorld-Regular-46"/>
     <use x="703.369141" xlink:href="#HelveticaWorld-Regular-48"/>
     <use x="758.984375" xlink:href="#HelveticaWorld-Regular-46"/>
     <use x="786.767578" xlink:href="#HelveticaWorld-Regular-53"/>
    </g>
   </g>
   <g id="text_13">
    <!-- cell quality, avg  and min (dashed) -->
    <g style="fill:#969696;" transform="translate(108.432969 17.461562)scale(0.14 -0.14)">
     <defs>
      <path d="M 15.375 0 
L 6.59375 0 
L 6.59375 71.78125 
L 15.375 71.78125 
z
" id="HelveticaWorld-Regular-108"/>
      <path d="M 41.5 23.6875 
Q 41.5 34.8125 38 40.359375 
Q 34.515625 45.90625 27.390625 45.90625 
Q 20.515625 45.90625 16.796875 41.40625 
Q 13.09375 36.921875 13.09375 26.3125 
Q 13.09375 16.890625 16.84375 11.5 
Q 20.609375 6.109375 27.203125 6.109375 
Q 33.015625 6.109375 37.25 10.5 
Q 41.5 14.890625 41.5 23.6875 
z
M 49.90625 -20.703125 
L 41.109375 -20.703125 
L 41.109375 5.515625 
L 40.921875 5.515625 
Q 35.890625 -1.515625 27 -1.515625 
Q 16.015625 -1.515625 10 6.640625 
Q 4 14.796875 4 27.6875 
Q 4 39.109375 9.90625 46.453125 
Q 15.828125 53.8125 25.78125 53.8125 
Q 35.6875 53.8125 41.40625 44.921875 
L 41.609375 44.921875 
L 41.609375 52.296875 
L 49.90625 52.296875 
z
" id="HelveticaWorld-Regular-113"/>
      <path d="M 38.375 26.703125 
Q 37.40625 25.6875 34.546875 25.046875 
Q 31.6875 24.421875 23.875 23.390625 
Q 18.109375 22.703125 15.40625 20.546875 
Q 12.703125 18.40625 12.703125 14.890625 
Q 12.703125 10.59375 14.984375 8.203125 
Q 17.28125 5.8125 22.3125 5.8125 
Q 28.609375 5.8125 33.484375 9.390625 
Q 38.375 12.984375 38.375 18.109375 
z
M 6.203125 36.375 
Q 6.5 45.21875 11.9375 49.515625 
Q 17.390625 53.8125 27.78125 53.8125 
Q 36.078125 53.8125 41.6875 50.046875 
Q 47.3125 46.296875 47.3125 39.203125 
L 47.3125 9.078125 
Q 47.3125 6 50.09375 6 
Q 51.21875 6 52.984375 6.390625 
L 52.984375 0 
Q 50.59375 -0.984375 48 -0.984375 
Q 43.5 -0.984375 41.296875 0.9375 
Q 39.109375 2.875 39.015625 6.984375 
Q 31.5 -1.515625 20.125 -1.515625 
Q 12.703125 -1.515625 8.203125 2.6875 
Q 3.71875 6.890625 3.71875 13.625 
Q 3.71875 20.515625 7.625 24.75 
Q 11.53125 29 19 29.890625 
L 34.515625 31.78125 
Q 38.71875 32.421875 38.71875 37.984375 
Q 38.71875 42.09375 35.671875 44.28125 
Q 32.625 46.484375 26.421875 46.484375 
Q 20.90625 46.484375 17.9375 44.046875 
Q 14.984375 41.609375 14.40625 36.375 
z
" id="HelveticaWorld-Regular-97"/>
      <path d="M 39.40625 52.296875 
L 49.03125 52.296875 
L 29.109375 0 
L 19.671875 0 
L 0.59375 52.296875 
L 10.796875 52.296875 
L 24.421875 9.71875 
L 24.609375 9.71875 
z
" id="HelveticaWorld-Regular-118"/>
      <path d="M 29.78125 73.296875 
Q 20.90625 57.421875 18.5625 47.453125 
Q 16.21875 37.5 16.21875 25.484375 
Q 16.21875 13.625 19.40625 3.359375 
Q 22.609375 -6.890625 29.890625 -20.703125 
L 24.03125 -20.703125 
Q 15.71875 -8.59375 11.25 2.1875 
Q 6.78125 12.984375 6.78125 26.125 
Q 6.78125 38.484375 10.828125 49.6875 
Q 14.890625 60.890625 23.6875 73.296875 
z
" id="HelveticaWorld-Regular-40"/>
      <path d="M 3.515625 -20.703125 
Q 12.3125 -4.78125 14.65625 5.15625 
Q 17 15.09375 17 27.09375 
Q 17 39.015625 13.84375 49.265625 
Q 10.6875 59.515625 3.421875 73.296875 
L 9.1875 73.296875 
Q 17.578125 61.1875 22.046875 50.390625 
Q 26.515625 39.59375 26.515625 26.515625 
Q 26.515625 14.109375 22.453125 2.90625 
Q 18.40625 -8.296875 9.625 -20.703125 
z
" id="HelveticaWorld-Regular-41"/>
     </defs>
     <use xlink:href="#HelveticaWorld-Regular-99"/>
     <use x="51.269531" xlink:href="#HelveticaWorld-Regular-101"/>
     <use x="106.689453" xlink:href="#HelveticaWorld-Regular-108"/>
     <use x="128.710938" xlink:href="#HelveticaWorld-Regular-108"/>
     <use x="150.732422" xlink:href="#HelveticaWorld-Regular-32"/>
     <use x="175.146484" xlink:href="#HelveticaWorld-Regular-113"/>
     <use x="231.640625" xlink:href="#HelveticaWorld-Regular-117"/>
     <use x="286.425781" xlink:href="#HelveticaWorld-Regular-97"/>
     <use x="341.357422" xlink:href="#HelveticaWorld-Regular-108"/>
     <use x="363.378906" xlink:href="#HelveticaWorld-Regular-105"/>
     <use x="385.400391" xlink:href="#HelveticaWorld-Regular-116"/>
     <use x="413.085938" xlink:href="#HelveticaWorld-Regular-121"/>
     <use x="452.695312" xlink:href="#HelveticaWorld-Regular-44"/>
     <use x="480.478516" xlink:href="#HelveticaWorld-Regular-32"/>
     <use x="504.892578" xlink:href="#HelveticaWorld-Regular-97"/>
     <use x="557.574219" xlink:href="#HelveticaWorld-Regular-118"/>
     <use x="605.683594" xlink:href="#HelveticaWorld-Regular-103"/>
     <use x="661.591797" xlink:href="#HelveticaWorld-Regular-32"/>
     <use x="686.005859" xlink:href="#HelveticaWorld-Regular-32"/>
     <use x="710.419922" xlink:href="#HelveticaWorld-Regular-97"/>
     <use x="765.351562" xlink:href="#HelveticaWorld-Regular-110"/>
     <use x="820.527344" xlink:href="#HelveticaWorld-Regular-100"/>
     <use x="877.509766" xlink:href="#HelveticaWorld-Regular-32"/>
     <use x="901.923828" xlink:href="#HelveticaWorld-Regular-109"/>
     <use x="984.931641" xlink:href="#HelveticaWorld-Regular-105"/>
     <use x="1006.953125" xlink:href="#HelveticaWorld-Regular-110"/>
     <use x="1062.128906" xlink:href="#HelveticaWorld-Regular-32"/>
     <use x="1086.542969" xlink:href="#HelveticaWorld-Regular-40"/>
     <use x="1119.84375" xlink:href="#HelveticaWorld-Regular-100"/>
     <use x="1176.826172" xlink:href="#HelveticaWorld-Regular-97"/>
     <use x="1231.757812" xlink:href="#HelveticaWorld-Regular-115"/>
     <use x="1281.757812" xlink:href="#HelveticaWorld-Regular-104"/>
     <use x="1336.933594" xlink:href="#HelveticaWorld-Regular-101"/>
     <use x="1392.353516" xlink:href="#HelveticaWorld-Regular-100"/>
     <use x="1449.335938" xlink:href="#HelveticaWorld-Regular-41"/>
    </g>
   </g>
  </g>
 </g>
 <defs>
  <clipPath id="p61734478bb">
   <rect height="266.112" width="357.12" x="33.66" y="47.461562"/>
  </clipPath>
 </defs>
</svg>
